<svg xmlns="http://www.w3.org/2000/svg" viewBox="0 0 472.53 100.8"><defs><style>.cls-1{fill:#3c3c3b;}.cls-2{fill:#373636;}.cls-3{fill:none;stroke:#373636;stroke-miterlimit:10;stroke-width:1.6px;}</style></defs><g id="Calque_2" data-name="Calque 2"><g id="Calque_1-2" data-name="Calque 1"><path class="cls-1" d="M82.51,91.58a2.79,2.79,0,0,1,1.23.26,2,2,0,0,1,.82.74,2.07,2.07,0,0,1,.3,1.13,2.11,2.11,0,0,1-.3,1.14,2,2,0,0,1-.82.73,2.65,2.65,0,0,1-1.23.26H80.89v2.74H80v-7Zm-.13,3.47a1.78,1.78,0,0,0,1.21-.35,1.28,1.28,0,0,0,.38-1,1.25,1.25,0,0,0-.38-1,1.78,1.78,0,0,0-1.21-.34H80.89v2.67Z"/><path class="cls-1" d="M88.62,98.68a2.69,2.69,0,0,1-1.34-.33,2.25,2.25,0,0,1-.92-.94A3.26,3.26,0,0,1,86,95.93a3.2,3.2,0,0,1,.32-1.48,2.32,2.32,0,0,1,.91-1,2.54,2.54,0,0,1,1.3-.33,2.44,2.44,0,0,1,1.27.32,2.14,2.14,0,0,1,.8.86,2.77,2.77,0,0,1,.27,1.23c0,.12,0,.23,0,.33l0,.26H86.59v-.75H90.5l-.44.08a1.59,1.59,0,0,0-.41-1.17,1.49,1.49,0,0,0-1.1-.42,1.63,1.63,0,0,0-.9.24,1.59,1.59,0,0,0-.58.69,2.91,2.91,0,0,0,0,2.17,1.7,1.7,0,0,0,.6.69,1.74,1.74,0,0,0,.93.24,1.78,1.78,0,0,0,1-.22,1.73,1.73,0,0,0,.59-.61l.67.4a2.23,2.23,0,0,1-.52.62,2.26,2.26,0,0,1-.73.41A2.77,2.77,0,0,1,88.62,98.68Zm.17-8.05h.92l-1,1.77H88Z"/><path class="cls-1" d="M92.68,98.58v-5.3h.69l.12.87a1.5,1.5,0,0,1,.65-.73,2,2,0,0,1,1-.25l.31,0a.77.77,0,0,1,.28.09l-.15.77a1,1,0,0,0-.26-.06A2.07,2.07,0,0,0,95,94a1.28,1.28,0,0,0-.66.19,1.53,1.53,0,0,0-.56.57,2.06,2.06,0,0,0-.22,1v2.87Z"/><path class="cls-1" d="M97.59,92.26a.65.65,0,0,1-.46-.17.64.64,0,0,1-.18-.47.62.62,0,0,1,.18-.46.71.71,0,0,1,.92,0,.62.62,0,0,1,.18.46.64.64,0,0,1-.18.47A.65.65,0,0,1,97.59,92.26Zm.42,1v5.3h-.84v-5.3Z"/><path class="cls-1" d="M102.05,98.68a3.09,3.09,0,0,1-1.42-.33,2.26,2.26,0,0,1-1-.93l.72-.52a1.75,1.75,0,0,0,.68.77,2.07,2.07,0,0,0,1.09.27,1.53,1.53,0,0,0,.88-.22.64.64,0,0,0,.31-.56.62.62,0,0,0-.14-.41.94.94,0,0,0-.55-.27l-1.27-.27a1.93,1.93,0,0,1-1.1-.53,1.28,1.28,0,0,1-.34-.92,1.33,1.33,0,0,1,.25-.79,1.72,1.72,0,0,1,.71-.58,2.47,2.47,0,0,1,1.09-.22,2.58,2.58,0,0,1,1.32.31,1.9,1.9,0,0,1,.81.87l-.71.46a1.28,1.28,0,0,0-.59-.68,1.75,1.75,0,0,0-.83-.22,1.76,1.76,0,0,0-.65.11,1,1,0,0,0-.42.29.68.68,0,0,0-.14.42.66.66,0,0,0,.16.43,1,1,0,0,0,.59.28l1.33.27a1.84,1.84,0,0,1,1,.49,1.23,1.23,0,0,1,.3.83,1.51,1.51,0,0,1-.26.87,1.62,1.62,0,0,1-.75.58A2.67,2.67,0,0,1,102.05,98.68Z"/><path class="cls-1" d="M108.08,93.17a2.63,2.63,0,0,1,1,.17,2.13,2.13,0,0,1,.73.49,2.66,2.66,0,0,1,.5.75l-.81.38a1.57,1.57,0,0,0-.51-.78,1.42,1.42,0,0,0-.9-.27,1.69,1.69,0,0,0-.91.24,1.52,1.52,0,0,0-.58.69,3,3,0,0,0,0,2.17,1.52,1.52,0,0,0,.58.69,1.69,1.69,0,0,0,.91.24,1.75,1.75,0,0,0,.72-.13,1.15,1.15,0,0,0,.5-.37,1.39,1.39,0,0,0,.27-.59l.78.28a2.53,2.53,0,0,1-.49.83,2.12,2.12,0,0,1-.75.54,2.67,2.67,0,0,1-1,.18,2.64,2.64,0,0,1-1.32-.33,2.23,2.23,0,0,1-.91-.94,3.14,3.14,0,0,1-.33-1.48,3.08,3.08,0,0,1,.33-1.48,2.32,2.32,0,0,1,.91-1A2.64,2.64,0,0,1,108.08,93.17Z"/><path class="cls-1" d="M114.18,93.17a2.65,2.65,0,0,1,1.33.33,2.32,2.32,0,0,1,.91,1,3.08,3.08,0,0,1,.32,1.48,3.14,3.14,0,0,1-.32,1.48,2.23,2.23,0,0,1-.91.94,2.65,2.65,0,0,1-1.33.33,2.61,2.61,0,0,1-1.32-.33,2.25,2.25,0,0,1-.92-.94,3.14,3.14,0,0,1-.33-1.48,3.08,3.08,0,0,1,.33-1.48,2.34,2.34,0,0,1,.92-1A2.61,2.61,0,0,1,114.18,93.17Zm0,.73a1.6,1.6,0,0,0-.92.25,1.54,1.54,0,0,0-.59.69,2.91,2.91,0,0,0,0,2.17,1.57,1.57,0,0,0,.59.7,1.88,1.88,0,0,0,1.84,0,1.57,1.57,0,0,0,.59-.7,2.91,2.91,0,0,0,0-2.17,1.54,1.54,0,0,0-.59-.69A1.6,1.6,0,0,0,114.18,93.9Z"/><path class="cls-1" d="M119.31,90.84v6.39a.8.8,0,0,0,.15.56.66.66,0,0,0,.48.15,1.58,1.58,0,0,0,.34,0,2.6,2.6,0,0,0,.38-.12l-.14.75-.37.11a3,3,0,0,1-.42,0,1.2,1.2,0,0,1-1-.35,1.61,1.61,0,0,1-.31-1.07V90.84Z"/><path class="cls-1" d="M125,95.15a1.2,1.2,0,0,0-.32-.91,1.19,1.19,0,0,0-.9-.33,1.69,1.69,0,0,0-.93.24,1.43,1.43,0,0,0-.56.77l-.69-.42a1.83,1.83,0,0,1,.78-1,2.57,2.57,0,0,1,1.42-.37,2.64,2.64,0,0,1,1,.2,1.67,1.67,0,0,1,.74.59,1.8,1.8,0,0,1,.27,1v2.57c0,.25.13.38.4.38a1.6,1.6,0,0,0,.39-.05l0,.66a1.1,1.1,0,0,1-.55.11,1.38,1.38,0,0,1-.55-.11.88.88,0,0,1-.38-.36,1.21,1.21,0,0,1-.14-.6v-.11l.21,0a1.39,1.39,0,0,1-.43.67,2.13,2.13,0,0,1-.69.38,2.55,2.55,0,0,1-.75.12,2.28,2.28,0,0,1-.87-.16,1.31,1.31,0,0,1-.88-1.28,1.33,1.33,0,0,1,.39-1,2.13,2.13,0,0,1,1.11-.52l2.1-.42V96l-1.71.35a1.93,1.93,0,0,0-.77.3.68.68,0,0,0,0,1.06,1.11,1.11,0,0,0,.73.21,1.91,1.91,0,0,0,.59-.08,1.37,1.37,0,0,0,.5-.24,1.1,1.1,0,0,0,.35-.42,1.18,1.18,0,0,0,.13-.58Z"/><path class="cls-1" d="M128.49,92.26a.65.65,0,0,1-.46-.17.64.64,0,0,1-.18-.47.62.62,0,0,1,.18-.46.71.71,0,0,1,.92,0,.62.62,0,0,1,.18.46.64.64,0,0,1-.18.47A.65.65,0,0,1,128.49,92.26Zm.42,1v5.3h-.85v-5.3Z"/><path class="cls-1" d="M131,98.58v-5.3h.69l.12.87a1.55,1.55,0,0,1,.65-.73,2,2,0,0,1,1.05-.25l.3,0a.77.77,0,0,1,.28.09l-.15.77a1,1,0,0,0-.25-.06,2.24,2.24,0,0,0-.4,0,1.28,1.28,0,0,0-.66.19,1.53,1.53,0,0,0-.56.57,2.06,2.06,0,0,0-.22,1v2.87Z"/><path class="cls-1" d="M137.57,98.68a2.69,2.69,0,0,1-1.34-.33,2.25,2.25,0,0,1-.92-.94,3.26,3.26,0,0,1-.32-1.48,3.2,3.2,0,0,1,.32-1.48,2.32,2.32,0,0,1,.91-1,2.54,2.54,0,0,1,1.3-.33,2.44,2.44,0,0,1,1.27.32,2.14,2.14,0,0,1,.8.86,2.77,2.77,0,0,1,.27,1.23c0,.12,0,.23,0,.33l0,.26h-4.28v-.75h3.91l-.44.08a1.59,1.59,0,0,0-.41-1.17,1.49,1.49,0,0,0-1.1-.42,1.63,1.63,0,0,0-.9.24,1.59,1.59,0,0,0-.58.69A2.91,2.91,0,0,0,136,97a1.7,1.7,0,0,0,.6.69,1.74,1.74,0,0,0,.93.24,1.78,1.78,0,0,0,.95-.22,1.73,1.73,0,0,0,.59-.61l.67.4a2.23,2.23,0,0,1-.52.62,2.26,2.26,0,0,1-.73.41A2.77,2.77,0,0,1,137.57,98.68Z"/><path class="cls-1" d="M147.62,98.68a2.69,2.69,0,0,1-1.34-.33,2.25,2.25,0,0,1-.92-.94,3.26,3.26,0,0,1-.32-1.48,3.2,3.2,0,0,1,.32-1.48,2.32,2.32,0,0,1,.91-1,2.54,2.54,0,0,1,1.3-.33,2.44,2.44,0,0,1,1.27.32,2.14,2.14,0,0,1,.8.86,2.77,2.77,0,0,1,.27,1.23c0,.12,0,.23,0,.33l0,.26h-4.28v-.75h3.91l-.44.08a1.55,1.55,0,0,0-.42-1.17,1.45,1.45,0,0,0-1.09-.42,1.63,1.63,0,0,0-.9.24,1.59,1.59,0,0,0-.58.69,2.91,2.91,0,0,0,0,2.17,1.63,1.63,0,0,0,.6.69,1.74,1.74,0,0,0,.93.24,1.78,1.78,0,0,0,1-.22,1.73,1.73,0,0,0,.59-.61l.67.4a2.23,2.23,0,0,1-.52.62,2.26,2.26,0,0,1-.73.41A2.77,2.77,0,0,1,147.62,98.68Z"/><path class="cls-1" d="M154.7,93.28V94h-3.84v-.73Zm-1.93-1.51v5.34a.73.73,0,0,0,.23.59.87.87,0,0,0,.57.19,1.25,1.25,0,0,0,.53-.11,1.38,1.38,0,0,0,.4-.28l.3.71a2.08,2.08,0,0,1-.58.35,2.26,2.26,0,0,1-.77.12,1.86,1.86,0,0,1-.75-.14,1.26,1.26,0,0,1-.56-.46,1.42,1.42,0,0,1-.21-.82V92Z"/><path class="cls-1" d="M161.8,98.68a3.09,3.09,0,0,1-1.42-.33,2.26,2.26,0,0,1-1-.93l.72-.52a1.75,1.75,0,0,0,.68.77,2.07,2.07,0,0,0,1.09.27,1.51,1.51,0,0,0,.88-.22.65.65,0,0,0,.32-.56.63.63,0,0,0-.15-.41.91.91,0,0,0-.54-.27l-1.27-.27a1.93,1.93,0,0,1-1.11-.53,1.28,1.28,0,0,1-.34-.92,1.4,1.4,0,0,1,.25-.79,1.72,1.72,0,0,1,.71-.58,2.47,2.47,0,0,1,1.09-.22,2.58,2.58,0,0,1,1.32.31,1.9,1.9,0,0,1,.81.87l-.71.46a1.3,1.3,0,0,0-.58-.68,1.81,1.81,0,0,0-.84-.22,1.76,1.76,0,0,0-.65.11,1,1,0,0,0-.42.29.68.68,0,0,0-.14.42.66.66,0,0,0,.16.43,1,1,0,0,0,.59.28l1.33.27a1.91,1.91,0,0,1,1,.49,1.27,1.27,0,0,1,.29.83,1.44,1.44,0,0,1-.26.87,1.6,1.6,0,0,1-.74.58A2.75,2.75,0,0,1,161.8,98.68Z"/><path class="cls-1" d="M167.84,93.17a2.66,2.66,0,0,1,1,.17,2.09,2.09,0,0,1,.72.49,2.46,2.46,0,0,1,.5.75l-.81.38a1.57,1.57,0,0,0-.51-.78,1.42,1.42,0,0,0-.9-.27,1.69,1.69,0,0,0-.91.24,1.52,1.52,0,0,0-.58.69,3,3,0,0,0,0,2.17,1.52,1.52,0,0,0,.58.69,1.69,1.69,0,0,0,.91.24,1.75,1.75,0,0,0,.72-.13,1.15,1.15,0,0,0,.5-.37,1.39,1.39,0,0,0,.27-.59l.78.28a2.53,2.53,0,0,1-.49.83,2.12,2.12,0,0,1-.75.54,2.85,2.85,0,0,1-2.33-.15,2.23,2.23,0,0,1-.91-.94,3.14,3.14,0,0,1-.33-1.48,3.08,3.08,0,0,1,.33-1.48,2.32,2.32,0,0,1,.91-1A2.65,2.65,0,0,1,167.84,93.17Z"/><path class="cls-1" d="M173.93,93.17a2.62,2.62,0,0,1,1.33.33,2.32,2.32,0,0,1,.91,1,3.08,3.08,0,0,1,.33,1.48,3.14,3.14,0,0,1-.33,1.48,2.23,2.23,0,0,1-.91.94,2.83,2.83,0,0,1-2.65,0,2.25,2.25,0,0,1-.92-.94,3.26,3.26,0,0,1-.32-1.48,3.2,3.2,0,0,1,.32-1.48,2.34,2.34,0,0,1,.92-1A2.61,2.61,0,0,1,173.93,93.17Zm0,.73a1.6,1.6,0,0,0-.92.25,1.54,1.54,0,0,0-.59.69,2.91,2.91,0,0,0,0,2.17,1.57,1.57,0,0,0,.59.7,1.88,1.88,0,0,0,1.84,0,1.57,1.57,0,0,0,.59-.7,2.91,2.91,0,0,0,0-2.17,1.54,1.54,0,0,0-.59-.69A1.6,1.6,0,0,0,173.93,93.9Z"/><path class="cls-1" d="M179.06,90.84v6.39a.8.8,0,0,0,.15.56.66.66,0,0,0,.48.15,1.75,1.75,0,0,0,.35,0l.37-.12-.14.75-.37.11a2.86,2.86,0,0,1-.42,0,1.2,1.2,0,0,1-1-.35,1.61,1.61,0,0,1-.31-1.07V90.84Z"/><path class="cls-1" d="M184.75,95.15a1.24,1.24,0,0,0-.31-.91,1.22,1.22,0,0,0-.91-.33,1.74,1.74,0,0,0-.93.24,1.43,1.43,0,0,0-.56.77l-.69-.42a1.8,1.8,0,0,1,.79-1,2.52,2.52,0,0,1,1.42-.37,2.63,2.63,0,0,1,1,.2,1.67,1.67,0,0,1,.74.59,1.8,1.8,0,0,1,.27,1v2.57a.35.35,0,0,0,.4.38,1.75,1.75,0,0,0,.4-.05l-.05.66a1.1,1.1,0,0,1-.55.11,1.38,1.38,0,0,1-.55-.11.88.88,0,0,1-.38-.36,1.21,1.21,0,0,1-.14-.6v-.11l.21,0a1.39,1.39,0,0,1-.43.67,2.13,2.13,0,0,1-.69.38,2.5,2.5,0,0,1-.75.12,2.28,2.28,0,0,1-.87-.16,1.35,1.35,0,0,1-.64-.48,1.29,1.29,0,0,1-.24-.8,1.3,1.3,0,0,1,.4-1,2.06,2.06,0,0,1,1.1-.52l2.1-.42V96l-1.7.35a1.92,1.92,0,0,0-.78.3.68.68,0,0,0,0,1.06,1.13,1.13,0,0,0,.73.21,1.87,1.87,0,0,0,.59-.08,1.5,1.5,0,0,0,.51-.24,1.17,1.17,0,0,0,.47-1Z"/><path class="cls-1" d="M188.24,92.26a.65.65,0,0,1-.46-.17.64.64,0,0,1-.18-.47.62.62,0,0,1,.18-.46.71.71,0,0,1,.92,0,.62.62,0,0,1,.18.46.64.64,0,0,1-.18.47A.65.65,0,0,1,188.24,92.26Zm.42,1v5.3h-.84v-5.3Z"/><path class="cls-1" d="M190.79,98.58v-5.3h.69l.12.87a1.55,1.55,0,0,1,.65-.73,2,2,0,0,1,1.05-.25l.3,0a.77.77,0,0,1,.28.09l-.15.77a1,1,0,0,0-.25-.06,2.24,2.24,0,0,0-.4,0,1.33,1.33,0,0,0-.66.19,1.44,1.44,0,0,0-.55.57,2,2,0,0,0-.23,1v2.87Z"/><path class="cls-1" d="M197.32,98.68a2.72,2.72,0,0,1-1.34-.33,2.23,2.23,0,0,1-.91-.94,3.14,3.14,0,0,1-.33-1.48,3.08,3.08,0,0,1,.33-1.48,2.36,2.36,0,0,1,.9-1,2.54,2.54,0,0,1,1.3-.33,2.42,2.42,0,0,1,1.27.32,2.14,2.14,0,0,1,.8.86,2.77,2.77,0,0,1,.27,1.23c0,.12,0,.23,0,.33a1.09,1.09,0,0,1,0,.26h-4.28v-.75h3.91l-.43.08a1.55,1.55,0,0,0-.42-1.17,1.49,1.49,0,0,0-1.1-.42,1.6,1.6,0,0,0-.89.24,1.54,1.54,0,0,0-.59.69,2.85,2.85,0,0,0,0,2.17,1.56,1.56,0,0,0,.6.69,1.68,1.68,0,0,0,.92.24,1.78,1.78,0,0,0,.95-.22,1.65,1.65,0,0,0,.59-.61l.67.4a2.23,2.23,0,0,1-.52.62,2.16,2.16,0,0,1-.73.41A2.77,2.77,0,0,1,197.32,98.68Z"/><path class="cls-1" d="M205.16,98.58v-5.3h.74l.07,1.18-.13-.11a1.88,1.88,0,0,1,.45-.69,1.79,1.79,0,0,1,.66-.37,2.54,2.54,0,0,1,.78-.12,2.36,2.36,0,0,1,1,.22,1.71,1.71,0,0,1,.75.66,2.09,2.09,0,0,1,.28,1.14v3.39H209v-3.1a1.62,1.62,0,0,0-.37-1.22,1.34,1.34,0,0,0-.93-.35,1.73,1.73,0,0,0-.76.18,1.51,1.51,0,0,0-.64.59,2.11,2.11,0,0,0-.24,1.08v2.82Z"/><path class="cls-1" d="M213.8,98.68a2.38,2.38,0,0,1-1-.19,1.51,1.51,0,0,1-.73-.62,2,2,0,0,1-.29-1.12V93.28h.85v3.25a1.43,1.43,0,0,0,.35,1.11,1.48,1.48,0,0,0,1,.3,1.65,1.65,0,0,0,.58-.1,1.5,1.5,0,0,0,.52-.32,1.55,1.55,0,0,0,.36-.55,2.46,2.46,0,0,0,.13-.81V93.28h.85v5.3h-.75l0-.81a1.64,1.64,0,0,1-.75.7A2.67,2.67,0,0,1,213.8,98.68Z"/><path class="cls-1" d="M218.58,98.58v-5.3h.74l.05.82a1.76,1.76,0,0,1,.75-.71,2.28,2.28,0,0,1,.95-.22,2.31,2.31,0,0,1,1.06.26,1.69,1.69,0,0,1,.76.78,1.46,1.46,0,0,1,.48-.59,2.35,2.35,0,0,1,.67-.34,2.6,2.6,0,0,1,.7-.11,2.35,2.35,0,0,1,1,.21,1.76,1.76,0,0,1,.75.66,2,2,0,0,1,.3,1.15v3.39h-.85V95.27a1.32,1.32,0,0,0-.36-1,1.3,1.3,0,0,0-.89-.32,1.61,1.61,0,0,0-.77.2,1.52,1.52,0,0,0-.58.6,2,2,0,0,0-.22,1v2.91h-.85V95.27a1.32,1.32,0,0,0-.36-1,1.3,1.3,0,0,0-.89-.32,1.48,1.48,0,0,0-.71.19,1.44,1.44,0,0,0-.61.59,2.05,2.05,0,0,0-.24,1.06v2.83Z"/><path class="cls-1" d="M231.05,98.68a2.72,2.72,0,0,1-1.34-.33,2.18,2.18,0,0,1-.91-.94,3.14,3.14,0,0,1-.33-1.48,3.08,3.08,0,0,1,.33-1.48,2.23,2.23,0,0,1,.9-1,2.54,2.54,0,0,1,1.3-.33,2.44,2.44,0,0,1,1.27.32,2.14,2.14,0,0,1,.8.86,2.77,2.77,0,0,1,.27,1.23c0,.12,0,.23,0,.33l0,.26H229v-.75h3.91l-.44.08a1.55,1.55,0,0,0-.41-1.17,1.49,1.49,0,0,0-1.1-.42,1.63,1.63,0,0,0-.9.24,1.59,1.59,0,0,0-.58.69,2.55,2.55,0,0,0-.21,1.09,2.42,2.42,0,0,0,.22,1.08,1.56,1.56,0,0,0,.6.69,1.68,1.68,0,0,0,.92.24,1.78,1.78,0,0,0,.95-.22,1.73,1.73,0,0,0,.59-.61l.67.4a2.23,2.23,0,0,1-.52.62,2.26,2.26,0,0,1-.73.41A2.77,2.77,0,0,1,231.05,98.68Zm.17-8.05h.93l-1,1.77h-.69Z"/><path class="cls-1" d="M235.11,98.58v-5.3h.69l.12.87a1.5,1.5,0,0,1,.65-.73,2,2,0,0,1,1-.25l.31,0a.77.77,0,0,1,.28.09l-.15.77a1,1,0,0,0-.26-.06,2.07,2.07,0,0,0-.39,0,1.28,1.28,0,0,0-.66.19,1.53,1.53,0,0,0-.56.57,2,2,0,0,0-.22,1v2.87Z"/><path class="cls-1" d="M240,92.26a.65.65,0,0,1-.46-.17.64.64,0,0,1-.18-.47.62.62,0,0,1,.18-.46.71.71,0,0,1,.92,0,.62.62,0,0,1,.18.46.64.64,0,0,1-.18.47A.65.65,0,0,1,240,92.26Zm.42,1v5.3h-.84v-5.3Z"/><path class="cls-1" d="M246.4,100.8V97.13l.15.1a1.56,1.56,0,0,1-.36.79,1.68,1.68,0,0,1-.68.49,2.14,2.14,0,0,1-.87.17,2.32,2.32,0,0,1-1.21-.33,2.36,2.36,0,0,1-.88-.94,3.14,3.14,0,0,1-.32-1.48,3,3,0,0,1,.34-1.5,2.54,2.54,0,0,1,.93-.94,2.51,2.51,0,0,1,1.23-.32,2,2,0,0,1,.82.17,1.83,1.83,0,0,1,.66.46,1.52,1.52,0,0,1,.35.72h-.13l.08-1.24h.74v7.52Zm-1.67-2.86a1.51,1.51,0,0,0,.87-.25,1.61,1.61,0,0,0,.59-.71,2.6,2.6,0,0,0,.21-1.08,2.48,2.48,0,0,0-.21-1.08,1.51,1.51,0,0,0-.57-.67,1.58,1.58,0,0,0-.87-.24,1.51,1.51,0,0,0-1.23.55,2.26,2.26,0,0,0-.45,1.47,2.29,2.29,0,0,0,.44,1.46A1.45,1.45,0,0,0,244.73,97.94Z"/><path class="cls-1" d="M251.3,98.68a2.38,2.38,0,0,1-1-.19,1.51,1.51,0,0,1-.73-.62,2,2,0,0,1-.28-1.12V93.28h.85v3.25a1.43,1.43,0,0,0,.34,1.11,1.5,1.5,0,0,0,1,.3,1.65,1.65,0,0,0,.58-.1,1.41,1.41,0,0,0,.52-.32A1.55,1.55,0,0,0,253,97a2.22,2.22,0,0,0,.13-.81V93.28H254v5.3h-.74l-.06-.81a1.66,1.66,0,0,1-.74.7A2.75,2.75,0,0,1,251.3,98.68Z"/><path class="cls-1" d="M258.29,98.68a2.72,2.72,0,0,1-1.34-.33,2.23,2.23,0,0,1-.91-.94,3.14,3.14,0,0,1-.33-1.48,3.08,3.08,0,0,1,.33-1.48,2.36,2.36,0,0,1,.9-1,2.54,2.54,0,0,1,1.3-.33,2.42,2.42,0,0,1,1.27.32,2.14,2.14,0,0,1,.8.86,2.77,2.77,0,0,1,.27,1.23c0,.12,0,.23,0,.33a1.09,1.09,0,0,1,0,.26h-4.28v-.75h3.91l-.43.08a1.55,1.55,0,0,0-.42-1.17,1.49,1.49,0,0,0-1.1-.42,1.66,1.66,0,0,0-.9.24,1.59,1.59,0,0,0-.58.69,2.85,2.85,0,0,0,0,2.17,1.56,1.56,0,0,0,.6.69,1.68,1.68,0,0,0,.92.24,1.78,1.78,0,0,0,1-.22,1.65,1.65,0,0,0,.59-.61l.67.4a2.23,2.23,0,0,1-.52.62,2.16,2.16,0,0,1-.73.41A2.77,2.77,0,0,1,258.29,98.68Z"/><path class="cls-1" d="M264.26,98.68a3.09,3.09,0,0,1-1.42-.33,2.26,2.26,0,0,1-1-.93l.72-.52a1.75,1.75,0,0,0,.68.77,2.07,2.07,0,0,0,1.09.27,1.53,1.53,0,0,0,.88-.22.64.64,0,0,0,.31-.56.62.62,0,0,0-.14-.41.94.94,0,0,0-.55-.27l-1.27-.27a1.93,1.93,0,0,1-1.1-.53,1.28,1.28,0,0,1-.34-.92,1.33,1.33,0,0,1,.25-.79,1.72,1.72,0,0,1,.71-.58,2.47,2.47,0,0,1,1.09-.22,2.58,2.58,0,0,1,1.32.31,1.9,1.9,0,0,1,.81.87l-.71.46a1.28,1.28,0,0,0-.59-.68,1.75,1.75,0,0,0-.83-.22,1.76,1.76,0,0,0-.65.11,1,1,0,0,0-.42.29.68.68,0,0,0-.14.42.66.66,0,0,0,.16.43,1,1,0,0,0,.59.28l1.33.27a1.84,1.84,0,0,1,1,.49,1.23,1.23,0,0,1,.3.83,1.51,1.51,0,0,1-.26.87,1.62,1.62,0,0,1-.75.58A2.67,2.67,0,0,1,264.26,98.68Z"/><path class="cls-2" d="M33.53,60.39a10.93,10.93,0,0,0,2.22.45c.74.07,1.48.11,2.22.11a18.6,18.6,0,0,0,5.35-.77A19.1,19.1,0,0,0,48.15,58a18.23,18.23,0,0,0,6.9-8l13.89,14a37.5,37.5,0,0,1-6.08,6.74,38.13,38.13,0,0,1-7.43,5.07A37.11,37.11,0,0,1,47,78.89,38,38,0,0,1,38,80a37.57,37.57,0,0,1-26.83-11A37.89,37.89,0,0,1,3,56.54,40.57,40.57,0,0,1,0,40.75,41.94,41.94,0,0,1,3,24.64,36.33,36.33,0,0,1,23.22,4.23,38.3,38.3,0,0,1,38,1.38a37.42,37.42,0,0,1,9.1,1.11,38.08,38.08,0,0,1,8.43,3.2A38.57,38.57,0,0,1,63,10.79a37.77,37.77,0,0,1,6.11,6.77Zm9.72-39.08a11.06,11.06,0,0,0-2.6-.63A25.68,25.68,0,0,0,38,20.54,18.91,18.91,0,0,0,30.65,22a17.44,17.44,0,0,0-6,4.06,19.16,19.16,0,0,0-4,6.35,22.82,22.82,0,0,0-1.46,8.37c0,.69,0,1.48.1,2.36s.19,1.77.35,2.67.36,1.77.59,2.6a9.36,9.36,0,0,0,.9,2.22Z"/><path class="cls-2" d="M86.64,34H80.09V1.28h13.1a12.86,12.86,0,0,1,3.47.46,13.23,13.23,0,0,1,5.77,3.38,13.2,13.2,0,0,1,2,2.66,13.78,13.78,0,0,1,1.33,3.13,13.22,13.22,0,0,1-.56,8.55,13.33,13.33,0,0,1-2.81,4.17,13.5,13.5,0,0,1-4.17,2.81,12.77,12.77,0,0,1-5.08,1H86.64Zm0-26.19v13.1h6.55a6.4,6.4,0,0,0,2.54-.51A6.58,6.58,0,0,0,97.8,19a6.7,6.7,0,0,0,1.41-2.09,6.45,6.45,0,0,0,.51-2.55,6.37,6.37,0,0,0-.51-2.54A6.59,6.59,0,0,0,97.8,9.75a6.41,6.41,0,0,0-4.61-1.92Z"/><path class="cls-2" d="M132.55,34H110.11V1.28h22.44V7.83H116.66v6.55h10.76v6.55H116.66v6.53h15.89Z"/><path class="cls-2" d="M143.69,34h-6.55V1.28h13.11a12.86,12.86,0,0,1,3.47.46,13.51,13.51,0,0,1,3.12,1.33,13.15,13.15,0,0,1,6,7.84,13.07,13.07,0,0,1,0,6.76,13.78,13.78,0,0,1-1.21,3,13.05,13.05,0,0,1-1.93,2.64,12.91,12.91,0,0,1-2.56,2.1L160.84,34h-7L151,27.42l-7.33,0Zm0-26.19v13.1h6.56a6.32,6.32,0,0,0,2.53-.51,6.51,6.51,0,0,0,3.48-3.49,6.29,6.29,0,0,0,.52-2.55,6.21,6.21,0,0,0-.52-2.54,6.56,6.56,0,0,0-1.4-2.09,6.49,6.49,0,0,0-2.08-1.41,6.32,6.32,0,0,0-2.53-.51Z"/><path class="cls-2" d="M174.18,34h-6.56V1.28h6.56Z"/><path class="cls-2" d="M78.17,57.22a9.57,9.57,0,0,1,.77-3.81,10,10,0,0,1,5.23-5.23A9.41,9.41,0,0,1,88,47.4h15V54H88a3.16,3.16,0,0,0-1.27.25,3.13,3.13,0,0,0-1,.7,3.19,3.19,0,0,0-.7,1,3.43,3.43,0,0,0,0,2.57,3.07,3.07,0,0,0,.7,1.05,3.13,3.13,0,0,0,1,.7,3.16,3.16,0,0,0,1.27.25h6.56a9.62,9.62,0,0,1,3.82.77,9.78,9.78,0,0,1,5.23,5.22,9.67,9.67,0,0,1,.77,3.83,9.57,9.57,0,0,1-.77,3.81,9.86,9.86,0,0,1-2.1,3.12,10,10,0,0,1-3.13,2.11,9.46,9.46,0,0,1-3.82.78H80V73.59H94.54a3.25,3.25,0,0,0,1.28-.25,3.15,3.15,0,0,0,1.73-1.73,3.25,3.25,0,0,0,.25-1.28,3.21,3.21,0,0,0-.25-1.28,3.21,3.21,0,0,0-1.73-1.74,3.43,3.43,0,0,0-1.28-.25H88a9.57,9.57,0,0,1-3.81-.77,10.09,10.09,0,0,1-5.23-5.24A9.67,9.67,0,0,1,78.17,57.22Z"/><path class="cls-2" d="M134.79,76.79a16.94,16.94,0,0,1-15.47,3.46A17,17,0,0,1,107.47,68.4a17.14,17.14,0,0,1,0-9,16.84,16.84,0,0,1,4.37-7.48,16.67,16.67,0,0,1,3.44-2.66,17.25,17.25,0,0,1,4-1.72,17.09,17.09,0,0,1,10.36.44,16.32,16.32,0,0,1,5.11,3l-3.47,5.71a9.94,9.94,0,0,0-3.4-2.39,10.52,10.52,0,0,0-4.11-.83,10.28,10.28,0,0,0-4.07.82,10.78,10.78,0,0,0-3.31,2.23,10.38,10.38,0,0,0-2.23,3.31,10.09,10.09,0,0,0-.83,4,9.92,9.92,0,0,0,.83,4,10.45,10.45,0,0,0,2.23,3.3,10.64,10.64,0,0,0,3.31,2.24,10.1,10.1,0,0,0,4.07.82,10.52,10.52,0,0,0,4.11-.83,9.8,9.8,0,0,0,3.4-2.39Z"/><path class="cls-2" d="M145.13,80.15h-6.55V47.4h6.55V60.51h13.09V47.4h6.55V80.15h-6.55V67.06H145.13Z"/><path class="cls-2" d="M202.92,63.91a16.72,16.72,0,0,1-.6,4.49,17.22,17.22,0,0,1-1.71,4A16.92,16.92,0,0,1,198,75.88a17.62,17.62,0,0,1-3.43,2.66A16.71,16.71,0,0,1,186,80.85a16.59,16.59,0,0,1-4.48-.6A16.84,16.84,0,0,1,174,75.88a17,17,0,0,1-2.66-3.44,16.81,16.81,0,0,1-1.71-4,16.87,16.87,0,0,1,0-9,16.64,16.64,0,0,1,1.71-4A17.18,17.18,0,0,1,174,52a16.56,16.56,0,0,1,3.43-2.65,17.27,17.27,0,0,1,4.05-1.7A16.59,16.59,0,0,1,186,47a16.89,16.89,0,0,1,12,5,17,17,0,0,1,4.35,7.46A16.84,16.84,0,0,1,202.92,63.91Zm-6.51,0a10.08,10.08,0,0,0-.82-4,10.69,10.69,0,0,0-2.22-3.31,10.55,10.55,0,0,0-3.31-2.23A10.33,10.33,0,0,0,186,53.5a10.23,10.23,0,0,0-4.06.82,10.55,10.55,0,0,0-3.31,2.23,10.41,10.41,0,0,0-2.24,3.31,10.08,10.08,0,0,0-.82,4,9.91,9.91,0,0,0,.82,4,10.58,10.58,0,0,0,5.55,5.54,10.06,10.06,0,0,0,4.06.82,10.16,10.16,0,0,0,4.06-.82,10.41,10.41,0,0,0,3.31-2.24,10.77,10.77,0,0,0,2.22-3.3A9.91,9.91,0,0,0,196.41,63.91Z"/><path class="cls-2" d="M239.29,63.91a16.72,16.72,0,0,1-.6,4.49,17.62,17.62,0,0,1-1.7,4,17,17,0,0,1-2.65,3.44,17.62,17.62,0,0,1-3.43,2.66,16.71,16.71,0,0,1-8.54,2.31,16.59,16.59,0,0,1-4.48-.6,17.09,17.09,0,0,1-10.14-7.81,16.81,16.81,0,0,1-1.71-4,16.87,16.87,0,0,1,0-9,16.64,16.64,0,0,1,1.71-4A17.18,17.18,0,0,1,210.41,52a16.36,16.36,0,0,1,3.44-2.65,17,17,0,0,1,4-1.7,16.59,16.59,0,0,1,4.48-.61,16.89,16.89,0,0,1,12,5A17.13,17.13,0,0,1,237,55.37a17.44,17.44,0,0,1,1.7,4A16.84,16.84,0,0,1,239.29,63.91Zm-6.51,0a10.08,10.08,0,0,0-.82-4,10.69,10.69,0,0,0-2.22-3.31,10.55,10.55,0,0,0-3.31-2.23,10.33,10.33,0,0,0-4.06-.82,10.23,10.23,0,0,0-4.06.82A10.67,10.67,0,0,0,215,56.55a10.41,10.41,0,0,0-2.24,3.31,10.08,10.08,0,0,0-.82,4,9.91,9.91,0,0,0,.82,4,10.58,10.58,0,0,0,5.55,5.54,10.06,10.06,0,0,0,4.06.82,10.16,10.16,0,0,0,4.06-.82,10.41,10.41,0,0,0,3.31-2.24,10.77,10.77,0,0,0,2.22-3.3A9.91,9.91,0,0,0,232.78,63.91Z"/><path class="cls-2" d="M266.51,80.15H243.58V47.4h6.56V73.59h16.37Z"/><path class="cls-2" d="M202.26,34.06a18.73,18.73,0,0,1-6.12-.94,8.78,8.78,0,0,1-4.21-2.92,8.27,8.27,0,0,1-1.57-5.06,10.13,10.13,0,0,1,.39-2.6,7.4,7.4,0,0,1,1.47-2.79,8.58,8.58,0,0,1,3.05-2.29,13.24,13.24,0,0,1,5.11-1.08l1.16-.05a22.43,22.43,0,0,0,3.3-2.43A6,6,0,0,0,206.28,12a4.7,4.7,0,0,0,.36-1.83,2,2,0,0,0-.57-1.52,2.13,2.13,0,0,0-1.5-.55,2.16,2.16,0,0,0-1.59.63,2.52,2.52,0,0,0-.62,1.88,3,3,0,0,0,.29,1.27,7.12,7.12,0,0,0,1,1.59c.52.63,1.25,1.42,2.2,2.39s2.17,2.18,3.68,3.66,2.68,2.61,3.71,3.59a21.65,21.65,0,0,0,2.77,2.29,6.9,6.9,0,0,0,2.44,1.06,7.54,7.54,0,0,0,2.79-.05l-.58,7.66a27.09,27.09,0,0,1-4.07-.27,11.84,11.84,0,0,1-3.44-1.08,20.33,20.33,0,0,1-3.69-2.41c-1.33-1.06-2.95-2.47-4.84-4.24q-3.81-3.61-6.12-5.95a35.28,35.28,0,0,1-3.49-4,10,10,0,0,1-1.57-3,11.05,11.05,0,0,1-.38-3,8.35,8.35,0,0,1,1.15-4.19A8.69,8.69,0,0,1,197.9,2.6a13.66,13.66,0,0,1,6.38-1.3,14,14,0,0,1,6.43,1.25,8.1,8.1,0,0,1,3.43,3.13,7.8,7.8,0,0,1,1,3.81,8.18,8.18,0,0,1-1.3,4.5A9.69,9.69,0,0,1,210,17.36a17.82,17.82,0,0,1-6.24,1.76l-1.4,1a12.66,12.66,0,0,0-1.71,1.47,3.49,3.49,0,0,0-.81,1.3,4.62,4.62,0,0,0-.22,1.51,2.35,2.35,0,0,0,.5,1.47,3.3,3.3,0,0,0,1.45,1,6.26,6.26,0,0,0,2.24.36,10.72,10.72,0,0,0,3.56-.56,30.58,30.58,0,0,0,3.18-1.32l.78-1.26a14.72,14.72,0,0,0,1.1-2.72,13,13,0,0,0,.44-3.63h7a15.74,15.74,0,0,1-1.23,5.56,11.21,11.21,0,0,1-3.11,4.17l-1.92,1.25a9.74,9.74,0,0,1-4.31,3.9A15.84,15.84,0,0,1,202.26,34.06Z"/><circle class="cls-2" cx="68.92" cy="40.58" r="3.6"/><circle class="cls-2" cx="185.91" cy="63.73" r="4.89"/><circle class="cls-2" cx="222.43" cy="63.73" r="4.89"/><path class="cls-3" d="M286.85.8H454.48A17.25,17.25,0,0,1,471.73,18V97.74a0,0,0,0,1,0,0H304.1A17.25,17.25,0,0,1,286.85,80.5V.8A0,0,0,0,1,286.85.8Z"/><polygon class="cls-2" points="344.75 29.74 327.1 29.74 335.9 45.91 344.75 29.74"/><rect class="cls-2" x="307.19" y="29.74" width="8.38" height="30.4"/><polygon class="cls-2" points="339.05 55.71 332.21 55.71 324.75 42.11 324.75 60.14 347.1 60.14 347.1 41.82 339.05 55.71"/><rect class="cls-2" x="356.29" y="29.74" width="8.38" height="30.4"/><polygon class="cls-2" points="313.34 75.03 313.35 71.67 311.88 74.19 310.64 74.19 309.28 71.72 309.29 75.03 307.61 75.03 307.61 69.47 309.71 69.47 311.31 72.41 312.92 69.47 315.01 69.47 315.01 75.03 313.34 75.03"/><path class="cls-2" d="M347.76,69.49h1.65V75h-1.65Zm0-2.11h1.72v1.45h-1.72Z"/><path class="cls-2" d="M353.31,72.63c-.53,0-1.85.05-1.85.8a.55.55,0,0,0,.59.53,2,2,0,0,0,1.26-.53ZM355,75h-1.63l0-.54a2.72,2.72,0,0,1-1.61.65,1.76,1.76,0,0,1-1.89-1.72,1.73,1.73,0,0,1,1.25-1.58,5.76,5.76,0,0,1,2.22-.28c0-.59-.18-.94-.84-.94a2,2,0,0,0-1.38.63L350,70.32a3.56,3.56,0,0,1,2.53-1A2.15,2.15,0,0,1,355,71.58Z"/><path class="cls-2" d="M358.91,70.87c-.1,0-.19,0-.29,0a1.34,1.34,0,0,0-1,.44,1.49,1.49,0,0,0-.23.43V75h-1.66V69.48h1.61l0,.78a1.5,1.5,0,0,1,1.4-.89,2.78,2.78,0,0,1,.81.11c-.06.14-.69,1.39-.69,1.39"/><path class="cls-2" d="M362.94,71a1.74,1.74,0,0,0-1.13-.51A1,1,0,0,0,361,71a2.41,2.41,0,0,0-.3,1.29c0,.72.25,1.71,1.15,1.71a1.68,1.68,0,0,0,1.06-.48Zm0,4,0-.48a2.21,2.21,0,0,1-1.49.56c-1.65,0-2.41-1.38-2.41-2.84a3,3,0,0,1,.72-2.1,2.28,2.28,0,0,1,1.72-.81,2.19,2.19,0,0,1,1.47.59V67.09h1.67V75Z"/><path class="cls-2" d="M318.43,70.6c-1,0-1.26.84-1.26,1.64s.3,1.63,1.26,1.63,1.25-.83,1.25-1.63-.3-1.64-1.25-1.64m0,4.52a2.89,2.89,0,1,1,2.95-2.88,2.75,2.75,0,0,1-2.95,2.88"/><path class="cls-2" d="M325.38,75V71.38c0-.39,0-.64-.5-.64a2.52,2.52,0,0,0-1.42.74V75h-1.68V69.49h1.62l0,.79a3.35,3.35,0,0,1,2.23-.91,1.25,1.25,0,0,1,1.4,1.26V75Z"/><path class="cls-2" d="M330.41,75.15c-1.35,0-1.8-.78-1.8-2V70.82h-1.15V69.49h1.18l0-1.19,1.56-.43V69.5H332v1.34h-1.72v2.23c0,.25-.08.77.3.77a2.26,2.26,0,0,0,.92-.42l.73,1.09a3.16,3.16,0,0,1-1.81.66"/><path class="cls-2" d="M335.26,70.6a1.66,1.66,0,0,0-1,.4v2.43a1.82,1.82,0,0,0,1.14.49c.9,0,1-1.21,1-1.87s-.24-1.45-1.14-1.45m1.8,4.06a2.21,2.21,0,0,1-1.33.46,2.1,2.1,0,0,1-1.51-.58l-.05.5h-1.62v-8h1.67v2.84a2.3,2.3,0,0,1,1.52-.57,2.18,2.18,0,0,1,1.43.54,2.78,2.78,0,0,1,.93,2.25,2.93,2.93,0,0,1-1,2.51"/><path class="cls-2" d="M341.09,69.07l-.8-.81,2-1.32,1,1Zm.22,1.51a1,1,0,0,0-1,1h2a1,1,0,0,0-1-1m.14,4.53a2.88,2.88,0,0,1-.15-5.75,2.48,2.48,0,0,1,2.63,2.69,3.57,3.57,0,0,1,0,.56h-3.66a1.27,1.27,0,0,0,1.21,1.23,2.1,2.1,0,0,0,1.4-.7l1.12,1a3.54,3.54,0,0,1-2.52,1"/><path class="cls-2" d="M346.33,75.11a1.74,1.74,0,0,1-1.63-.77,2.13,2.13,0,0,1-.21-1.12V67.09h1.64v6.08c0,.23-.05.59.31.59a2.49,2.49,0,0,0,.53-.09l.48,1.23a3.74,3.74,0,0,1-1.12.21"/><path class="cls-2" d="M309.22,64.05h-.89v1.12h.89c.35,0,.61-.18.61-.54a.54.54,0,0,0-.61-.58m.07,1.66h-1v1.35h-.72V63.53h1.62a2.68,2.68,0,0,1,.4,0,1,1,0,0,1,.92,1.07c0,.79-.53,1.09-1.26,1.09"/><path class="cls-2" d="M313,65.46h-.19c-.46,0-1.32,0-1.32.65a.52.52,0,0,0,.54.52,1.55,1.55,0,0,0,1-.48Zm.72,1.6H313l0-.33a2,2,0,0,1-1.12.41,1,1,0,0,1-1.09-1,1.09,1.09,0,0,1,.69-1A3.85,3.85,0,0,1,313,65c0-.52-.07-.94-.7-.94a1.23,1.23,0,0,0-.87.4L311,64a1.91,1.91,0,0,1,1.36-.53,1.35,1.35,0,0,1,1.26.66,1.72,1.72,0,0,1,.13.71Z"/><path class="cls-2" d="M315.79,67.5a2.27,2.27,0,0,1-.22.54,1,1,0,0,1-.95.43,2,2,0,0,1-.49-.06v-.57a1.75,1.75,0,0,0,.4,0c.39,0,.54-.21.65-.55l.13-.44a2.13,2.13,0,0,1-.18-.37l-1.12-3h.75l.86,2.45a2.11,2.11,0,0,1,0,.35,2.11,2.11,0,0,1,0-.35l.78-2.45h.72Z"/><path class="cls-2" d="M318.68,67.15a1.92,1.92,0,0,1-1.35-.5l.43-.44a1.3,1.3,0,0,0,.89.39c.27,0,.65-.1.65-.44,0-.66-1.86-.47-1.86-1.64a1.15,1.15,0,0,1,1.27-1.06,1.85,1.85,0,0,1,1.18.38l-.39.48a1.23,1.23,0,0,0-.8-.31c-.25,0-.57.12-.57.41a.39.39,0,0,0,.14.29,1.08,1.08,0,0,0,.46.21c.58.19,1.25.46,1.25,1.17s-.65,1.06-1.3,1.06"/><path class="cls-2" d="M324.1,64.49a1.32,1.32,0,0,0-.88-.43.81.81,0,0,0-.65.37,1.73,1.73,0,0,0-.21.92c0,.58.21,1.21.9,1.21a1.28,1.28,0,0,0,.84-.41Zm0,2.57,0-.31a1.4,1.4,0,0,1-.94.35,1.59,1.59,0,0,1-1.53-1.79,1.9,1.9,0,0,1,.46-1.33,1.43,1.43,0,0,1,1.09-.51,1.42,1.42,0,0,1,.93.37V62h.72v5Z"/><path class="cls-2" d="M327.9,64.8a.78.78,0,0,0-.78-.79c-.53,0-.79.4-.86.87h1.64Zm.67.64h-2.35a1.49,1.49,0,0,0,.16.66,1,1,0,0,0,.79.46,1.27,1.27,0,0,0,.9-.41l.45.43a1.78,1.78,0,0,1-1.35.53,1.62,1.62,0,0,1-1.68-1.84,1.63,1.63,0,0,1,1.59-1.8,1.5,1.5,0,0,1,1.52,1.69,1.27,1.27,0,0,1,0,.28"/><path class="cls-2" d="M309.28,77.68l-.85,2.2h1.75Zm1.47,3.73-.41-1.07h-2.12l-.4,1.07h-.61l1.72-4.14h.73l1.7,4.14Z"/><path class="cls-2" d="M315.61,80.18a1.42,1.42,0,0,1-.13.74,1.62,1.62,0,0,1-1.36.57,1.9,1.9,0,0,1-2-2.15,2,2,0,0,1,2-2.17,2,2,0,0,1,1.46.63l-.37.37a1.55,1.55,0,0,0-1.15-.55c-.95,0-1.39.9-1.39,1.72s.42,1.69,1.42,1.69c.5,0,1-.11,1-.71v-.66H314V79.2h1.59Z"/><path class="cls-2" d="M320.25,80.18a1.42,1.42,0,0,1-.13.74,1.59,1.59,0,0,1-1.35.57,1.9,1.9,0,0,1-2-2.15,2,2,0,0,1,3.49-1.54l-.37.37a1.56,1.56,0,0,0-1.15-.55c-1,0-1.39.9-1.39,1.72s.42,1.69,1.41,1.69c.5,0,1-.11,1-.71,0-.21,0-.43,0-.66h-1V79.2h1.58Z"/><polygon class="cls-2" points="321.61 81.41 321.61 77.27 322.14 77.27 322.14 80.94 324.22 80.94 324.22 81.41 321.61 81.41"/><path class="cls-2" d="M326.92,77.65c-1,0-1.4.8-1.4,1.69s.4,1.68,1.4,1.68,1.4-.8,1.4-1.68-.39-1.69-1.4-1.69m0,3.83a1.9,1.9,0,0,1-2-2.11,2,2,0,1,1,4,0,1.9,1.9,0,0,1-2,2.11"/><polygon class="cls-2" points="334.2 81.41 334.22 77.74 332.84 80.71 332.14 80.71 330.79 77.7 330.81 81.41 330.27 81.41 330.27 77.28 331.18 77.28 332.49 80.29 333.82 77.28 334.74 77.28 334.74 81.41 334.2 81.41"/><path class="cls-2" d="M337.4,76.69l-.26-.28,1.06-.7.37.39Zm-1.06,4.72V77.28h2.83v.48h-2.29V79h1.87v.47h-1.87v1.45h2.32v.47Z"/><path class="cls-2" d="M342.35,77.7h-1.3v1.41h1.24c.45,0,.84-.23.84-.72s-.32-.69-.78-.69m.91,3.71-.94-1.84h-1.27v1.84h-.54V77.25h1.69a2.88,2.88,0,0,1,.41,0,1.08,1.08,0,0,1,1.09,1.09,1.12,1.12,0,0,1-.83,1.13l1,1.92Z"/><path class="cls-2" d="M346.67,77.68l-.84,2.2h1.75Zm1.48,3.73-.41-1.07h-2.12l-.41,1.07h-.6l1.71-4.14h.73l1.7,4.14Z"/><polygon class="cls-2" points="350.62 77.75 350.62 81.41 350.07 81.41 350.07 77.75 348.65 77.76 348.65 77.28 352.04 77.28 352.04 77.76 350.62 77.75"/><polygon class="cls-2" points="352.73 81.41 352.73 80.96 353.53 80.97 353.53 77.74 352.78 77.74 352.78 77.28 354.8 77.28 354.8 77.74 354.05 77.74 354.05 80.97 354.86 80.96 354.86 81.41 352.73 81.41"/><path class="cls-2" d="M357.74,77.65c-1,0-1.39.8-1.39,1.69s.39,1.68,1.39,1.68,1.41-.8,1.41-1.68-.4-1.69-1.41-1.69m0,3.83a1.9,1.9,0,0,1-2-2.11,2,2,0,1,1,4,0,1.91,1.91,0,0,1-2,2.11"/><polygon class="cls-2" points="363.76 81.41 361.6 77.75 361.62 81.41 361.08 81.41 361.08 77.28 361.93 77.28 364.09 80.94 364.07 77.28 364.61 77.28 364.61 81.41 363.76 81.41"/><path class="cls-2" d="M430.76,43.82c2.68-1.46,4.08-6.16,3-9.59a9.33,9.33,0,0,0-7.18-6.86,6.49,6.49,0,0,0-1.39-.14c-2.25,0-4.49,0-6.74,0-.8,0-1.09.28-1.11,1.13s0,1.68,0,2.51S417.7,32,418.48,32c2.19,0,4.38,0,6.56,0a4.81,4.81,0,0,1,4.46,6,4.87,4.87,0,0,1-4.66,3.86c-1.53,0-3.06,0-4.59,0-.91,0-1.11.21-1.11,1.2,0,.77,0,1.55,0,2.33,0,1,.28,1.28,1.2,1.28h6A4.92,4.92,0,0,1,431,50.46a5.41,5.41,0,0,1-2.06,5.68,4.43,4.43,0,0,1-2.66.8h-7.61c-1,0-1.29.32-1.3,1.33,0,.82,0,1.64,0,2.46s.3,1.11,1.06,1.11c2.68,0,5.35.07,8,0a9.64,9.64,0,0,0,9-7.55,9.85,9.85,0,0,0-2.18-9.09A4.58,4.58,0,0,0,430.76,43.82Z"/><path class="cls-2" d="M416.57,53.76c0-2.13,0-4.25,0-6.38a2.81,2.81,0,0,0-1.48-2.72c-.12-.07-.27-.12-.29-.26s.17-.19.28-.25a2.87,2.87,0,0,0,1.49-2.69c0-4.27,0-8.54,0-12.81,0-1-.37-1.41-1.32-1.43h-1.39a1.46,1.46,0,0,0-1.58,1.67c0,2.14,0,4.29,0,6.43,0,1.84,0,3.68,0,5.52a3,3,0,0,1-1.94,3.07,1.23,1.23,0,0,0-.25.14c-.12.12-.32.2-.31.42s.25.23.38.28a3.09,3.09,0,0,1,2,1.94,4.09,4.09,0,0,1,.14,1.39c0,3.88,0,7.76,0,11.64,0,1.67.42,2.11,2,2.11h1c.88,0,1.28-.42,1.28-1.34C416.58,58.25,416.57,56,416.57,53.76Z"/><path class="cls-2" d="M428.82,70.09l2,3a7.16,7.16,0,0,1,.84,1.32c.41,1.09,1.23,1,2.1,1,.24,0,.34-.1.34-.37q0-3.7,0-7.42c0-.06,0-.15,0-.17-.46-.39-1-.12-1.49-.18-.33,0-.25.28-.25.49,0,1.31,0,2.62,0,3.92,0,.08,0,.15,0,.4L431,70c-.46-.7-.93-1.4-1.37-2.13a1,1,0,0,0-1-.57c-.53,0-1.22-.24-1.57.1s-.09,1-.1,1.59c0,2,0,3.93,0,5.89,0,.42.1.57.52.56,1.24,0,1.24,0,1.24-1.32v-4Z"/><path class="cls-2" d="M436,71.35c0,1.19,0,2.37,0,3.55,0,.38.07.55.48.54,1,0,1.93,0,2.9,0a4.09,4.09,0,0,0,.47-8.07c-1.17-.13-2.36,0-3.54-.07-.32,0-.3.22-.3.45Zm1.77,0v-.67c0-1.58,0-1.58,1.51-1.51a2.19,2.19,0,0,1,.39,4.3,8.39,8.39,0,0,1-1.5.08c-.3,0-.41-.11-.4-.42C437.77,72.54,437.76,72,437.75,71.36Z"/><path class="cls-2" d="M409.79,72.58c-.06-.49.25-1.24-.12-1.61s-1-.07-1.57-.1a1.41,1.41,0,0,0-.41,0c-.28.08-.7-.23-.84.23a1.15,1.15,0,0,0,.65,1.41c.16.08.43,0,.46.28s.09.61-.35.75a2.33,2.33,0,0,1-2.92-1.61,2.29,2.29,0,0,1,1.88-2.84,2,2,0,0,1,1.32.34,1.23,1.23,0,0,0,1.81-.29c.21-.23.21-.37,0-.6a3.92,3.92,0,0,0-4.49-1,4.17,4.17,0,0,0-2.37,4.06,4,4,0,0,0,2.93,3.74,4.33,4.33,0,0,0,3.38-.41,1.13,1.13,0,0,0,.65-1.23A10.37,10.37,0,0,1,409.79,72.58Z"/><path class="cls-2" d="M411.56,71.39c0,1.18,0,2.36,0,3.55,0,.35.08.5.45.5,1.33,0,1.33,0,1.33-1.34a2.06,2.06,0,0,1,0-.43c.06-.24-.19-.63.24-.68s.78-.14,1,.39c.11.3.32.56.43.86a1.75,1.75,0,0,0,2.13,1.2c.31,0,.31-.12.19-.37-.34-.7-.66-1.43-1-2.12-.15-.3-.17-.48.09-.73a2.8,2.8,0,0,0,.7-3.12,2.56,2.56,0,0,0-2.57-1.8c-.83,0-1.66,0-2.49,0-.36,0-.47.11-.47.48,0,1.21,0,2.41,0,3.62Zm1.78-1.28c0-.93,0-.93.87-.93h.4a.9.9,0,0,1,.8.6.86.86,0,0,1-.13.91c-.25.4-.64.39-1,.38C413.34,71.06,413.34,71.07,413.34,70.11Z"/><path class="cls-2" d="M417.94,75.43a12.18,12.18,0,0,0,1.22,0,1.17,1.17,0,0,0,1.06-.91.83.83,0,0,1,1-.71,12.83,12.83,0,0,0,1.86,0c.37,0,.54.13.68.49a1.61,1.61,0,0,0,2.13,1.13c.38-.1.13-.35.06-.51-.77-1.89-1.55-3.77-2.34-5.66-.21-.52-.44-1-.64-1.57a.52.52,0,0,0-.61-.4,3.86,3.86,0,0,1-.76,0,.42.42,0,0,0-.48.32q-1.53,3.72-3.08,7.44C418,75.14,418,75.24,417.94,75.43Zm4.1-5.34.77,2c-.45,0-.83,0-1.21,0s-.35-.1-.24-.36Z"/><path class="cls-2" d="M403.51,80.46c0,1,0,2,0,3,0,.35.11.44.43.44.85,0,1.7,0,2.55,0a1.95,1.95,0,0,0,1.15-3.38c-.23-.19-.22-.25-.05-.48a1.81,1.81,0,0,0,.19-2A1.69,1.69,0,0,0,406.16,77c-.76,0-1.51,0-2.27,0-.3,0-.39.08-.39.41C403.52,78.42,403.51,79.44,403.51,80.46Zm2.06,2.48h0a4.39,4.39,0,0,0-.63,0c-.4.05-.48-.14-.49-.53,0-1.56,0-1.56,1.47-1.56a3.53,3.53,0,0,1,.46,0,1,1,0,0,1,.06,2.05A6.32,6.32,0,0,1,405.57,82.94Zm-.11-5H406a1,1,0,0,1,1,1,1,1,0,0,1-1,1c-.38,0-.77,0-1.15,0s-.42-.11-.39-.43a4,4,0,0,0,0-.49C404.46,77.94,404.46,77.94,405.46,77.93Z"/><path class="cls-2" d="M431.56,80.47a3.45,3.45,0,0,0-3.35-3.6,3.58,3.58,0,0,0,0,7.14A3.45,3.45,0,0,0,431.56,80.47Zm-3.37-2.57a2.54,2.54,0,1,1-2.41,2.56A2.49,2.49,0,0,1,428.19,77.9Z"/><path class="cls-2" d="M438,83.83c-.6-.85-1.15-1.65-1.72-2.44-.23-.3-.25-.46.11-.69a2,2,0,0,0,.8-2.34A1.85,1.85,0,0,0,435.32,77H433.4c-.27,0-.43,0-.42.39q0,3.09,0,6.18c0,.42.24.33.46.34s.47,0,.45-.35c0-.62,0-1.23,0-1.84,0-.23-.13-.58.17-.64s.72-.16,1,.25c.42.63.91,1.22,1.3,1.87A1.29,1.29,0,0,0,438,83.83ZM433.89,79c0-.25,0-.49,0-.73s0-.34.24-.34a7.65,7.65,0,0,1,1.44,0,1,1,0,0,1,.57,1.63c-.32.47-.78.45-1.25.44C433.88,80.05,433.88,80.05,433.89,79Z"/><path class="cls-2" d="M409.63,80.44c0,1,0,2,0,3,0,.34.1.46.43.45,1.08,0,2.17,0,3.25,0,.33,0,.45-.1.44-.45s-.06-.53-.44-.52c-.78,0-1.55,0-2.33,0-.3,0-.4-.09-.41-.41-.07-1.65-.08-1.65,1.45-1.66a3.75,3.75,0,0,1,.58,0c.4.06.53-.08.54-.52s-.23-.46-.54-.46c-.54,0-1.09,0-1.63,0-.3,0-.39-.1-.4-.43,0-1.58-.05-1.58,1.46-1.57.42,0,.85,0,1.28,0s.43-.15.44-.51-.12-.45-.44-.44c-1.08,0-2.17,0-3.25,0-.33,0-.43.1-.42.45,0,1,0,2,0,3Z"/><path class="cls-2" d="M419.91,80.46c0,1,0,2,0,3,0,.34.07.48.41.45s.59.06.56-.45,0-1.27,0-1.9c0-.39.1-.55.49-.53.6,0,1.2,0,1.8,0,.38,0,.39-.21.38-.51s0-.52-.37-.5c-.62,0-1.24,0-1.86,0-.33,0-.43-.11-.44-.46-.06-1.67-.07-1.67,1.49-1.67.41,0,.82,0,1.22,0s.43-.1.43-.45-.07-.5-.45-.5c-1.08,0-2.17,0-3.25,0-.3,0-.4.07-.39.4C419.92,78.41,419.91,79.44,419.91,80.46Z"/><path class="cls-2" d="M440.09,81c0,.8,0,1.59,0,2.39,0,.34,0,.57.45.56s.47-.14.47-.53c0-1.61,0-3.23,0-4.84,0-.46.09-.69.57-.63.33,0,.66,0,1,0s.5-.08.5-.5-.18-.45-.49-.45c-1.36,0-2.71,0-4.07,0-.33,0-.49,0-.47.46s.07.54.45.49a6.26,6.26,0,0,1,.75,0c1,0,.87-.17.88.9,0,.71,0,1.42,0,2.14Z"/><path class="cls-2" d="M415.08,80.46c0,1,0,2,0,2.94,0,.34,0,.52.43.51,1,0,2,0,3,0,.37,0,.4-.15.4-.47s0-.5-.4-.49c-.6,0-1.2,0-1.8,0s-.7-.1-.68-.69c0-1.55,0-3.1,0-4.65,0-.36.05-.65-.48-.65s-.44.35-.44.67c0,.94,0,1.88,0,2.82Z"/><path class="cls-2" d="M300.21,14.53H299v-1.1h3.87v1.1h-1.22v3.1h-1.42Z"/><path class="cls-2" d="M305,16.57h-.38v1.06h-1.42v-4.2h2c1.17,0,1.92.61,1.92,1.59a1.39,1.39,0,0,1-.79,1.31l.88,1.3h-1.51Zm.13-2.05h-.51v1h.51c.39,0,.58-.19.58-.49S305.54,14.52,305.15,14.52Z"/><path class="cls-2" d="M310.55,16.9H309l-.28.73h-1.44l1.83-4.2h1.39l1.84,4.2h-1.46Zm-.39-1-.4-1.06-.41,1.06Z"/><path class="cls-2" d="M316.67,13.43v4.2H315.5l-1.59-1.91v1.91h-1.38v-4.2h1.16l1.6,1.91V13.43Z"/><path class="cls-2" d="M317.09,17.29l.46-1a2.79,2.79,0,0,0,1.38.39c.4,0,.55-.09.55-.23,0-.53-2.33-.1-2.33-1.67,0-.78.66-1.41,2-1.41a3.38,3.38,0,0,1,1.58.36l-.42,1a2.63,2.63,0,0,0-1.17-.31c-.42,0-.55.12-.55.26,0,.5,2.32.08,2.32,1.63,0,.77-.65,1.42-1.95,1.42A3.74,3.74,0,0,1,317.09,17.29Z"/><path class="cls-2" d="M322.71,14.5v.72h1.75v1.07h-1.75v1.34H321.3v-4.2h3.41V14.5Z"/><path class="cls-2" d="M325,15.53a2.38,2.38,0,1,1,2.37,2.2A2.21,2.21,0,0,1,325,15.53Zm3.31,0a.95.95,0,1,0-1.88,0,.95.95,0,1,0,1.88,0Z"/><path class="cls-2" d="M332,16.57h-.39v1.06h-1.41v-4.2h2c1.17,0,1.91.61,1.91,1.59a1.39,1.39,0,0,1-.79,1.31l.88,1.3h-1.51Zm.13-2.05h-.52v1h.52c.39,0,.57-.19.57-.49S332.54,14.52,332.15,14.52Z"/><path class="cls-2" d="M338.43,17.63V15.72l-.91,1.53h-.62L336,15.78v1.85h-1.29v-4.2h1.16l1.37,2.24,1.33-2.24h1.16v4.2Z"/><path class="cls-2" d="M343.27,16.9h-1.59l-.29.73H340l1.84-4.2h1.39l1.84,4.2h-1.47Zm-.39-1-.41-1.06-.4,1.06Z"/><path class="cls-2" d="M346,14.53h-1.23v-1.1h3.87v1.1h-1.23v3.1H346Z"/><path class="cls-2" d="M349,13.43h1.42v4.2H349Z"/><path class="cls-2" d="M350.89,15.53a2.38,2.38,0,1,1,2.37,2.2A2.21,2.21,0,0,1,350.89,15.53Zm3.31,0a.95.95,0,1,0-1.88,0,.95.95,0,1,0,1.88,0Z"/><path class="cls-2" d="M360.29,13.43v4.2h-1.17l-1.59-1.91v1.91h-1.38v-4.2h1.16l1.6,1.91V13.43Z"/><path class="cls-2" d="M362.77,13.43h2.07a2.12,2.12,0,1,1,0,4.2h-2.07Zm2,3.1a1,1,0,1,0,0-2h-.59v2Z"/><path class="cls-2" d="M369,13.89a1.67,1.67,0,0,1-.24.78l-.41.9h-.84l.3-1a.68.68,0,0,1-.39-.66.79.79,0,0,1,1.58,0Z"/><path class="cls-2" d="M369.43,15.74V13.43h1.41V15.7c0,.64.25.88.64.88s.64-.24.64-.88V13.43h1.4v2.31a2,2,0,0,1-4.09,0Z"/><path class="cls-2" d="M378.3,13.43v4.2h-1.16l-1.59-1.91v1.91h-1.38v-4.2h1.16l1.6,1.91V13.43Z"/><path class="cls-2" d="M381.7,14.53h-1.23v-1.1h3.88v1.1h-1.23v3.1H381.7Z"/><path class="cls-2" d="M388.2,16.56v1.07h-3.49v-4.2h3.42V14.5h-2V15h1.77v1h-1.77v.55Z"/><path class="cls-2" d="M390.55,16.57h-.38v1.06h-1.42v-4.2h2c1.17,0,1.92.61,1.92,1.59a1.39,1.39,0,0,1-.8,1.31l.89,1.3h-1.52Zm.13-2.05h-.51v1h.51c.39,0,.58-.19.58-.49S391.07,14.52,390.68,14.52Z"/><path class="cls-2" d="M395,16.57h-.38v1.06h-1.42v-4.2h2c1.17,0,1.92.61,1.92,1.59a1.39,1.39,0,0,1-.8,1.31l.89,1.3h-1.52Zm.13-2.05h-.51v1h.51c.39,0,.58-.19.58-.49S395.54,14.52,395.15,14.52Z"/><path class="cls-2" d="M397.69,13.43h1.42v4.2h-1.42Z"/><path class="cls-2" d="M400.7,14.53h-1.23v-1.1h3.88v1.1h-1.23v3.1H400.7Z"/><path class="cls-2" d="M403.49,15.53a2.37,2.37,0,1,1,2.37,2.2A2.21,2.21,0,0,1,403.49,15.53Zm3.31,0a.95.95,0,1,0-1.88,0,.95.95,0,1,0,1.88,0Z"/><path class="cls-2" d="M408.74,13.43h1.42v4.2h-1.42Z"/><path class="cls-2" d="M412.64,16.57h-.38v1.06h-1.42v-4.2h2c1.17,0,1.92.61,1.92,1.59a1.39,1.39,0,0,1-.79,1.31l.88,1.3h-1.51Zm.13-2.05h-.51v1h.51c.39,0,.58-.19.58-.49S413.16,14.52,412.77,14.52Z"/><path class="cls-2" d="M418.8,16.56v1.07h-3.49v-4.2h3.41V14.5h-2V15h1.78v1H416.7v.55Z"/><path class="cls-2" d="M421.15,13.43h1.42v4.2h-1.42Z"/><path class="cls-2" d="M427.39,13.43v4.2h-1.17l-1.59-1.91v1.91h-1.38v-4.2h1.16l1.6,1.91V13.43Z"/><path class="cls-2" d="M428.07,13.43h2.07a2.12,2.12,0,1,1,0,4.2h-2.07Zm2,3.1a1,1,0,1,0,0-2h-.59v2Z"/><path class="cls-2" d="M433,15.74V13.43h1.42V15.7c0,.64.25.88.64.88s.64-.24.64-.88V13.43h1.39v2.31a2,2,0,0,1-4.09,0Z"/><path class="cls-2" d="M437.47,17.29l.46-1a2.79,2.79,0,0,0,1.38.39c.4,0,.55-.09.55-.23,0-.53-2.32-.1-2.32-1.67,0-.78.65-1.41,1.95-1.41a3.38,3.38,0,0,1,1.58.36l-.42,1a2.56,2.56,0,0,0-1.17-.31c-.41,0-.55.12-.55.26,0,.5,2.33.08,2.33,1.63,0,.77-.66,1.42-2,1.42A3.74,3.74,0,0,1,437.47,17.29Z"/><path class="cls-2" d="M442.53,14.53H441.3v-1.1h3.87v1.1h-1.23v3.1h-1.41Z"/><path class="cls-2" d="M447.34,16.57H447v1.06h-1.42v-4.2h2c1.17,0,1.91.61,1.91,1.59a1.38,1.38,0,0,1-.79,1.31l.88,1.3h-1.51Zm.13-2.05H447v1h.51c.39,0,.58-.19.58-.49S447.86,14.52,447.47,14.52Z"/><path class="cls-2" d="M450,13.43h1.42v4.2H450Z"/><path class="cls-2" d="M455.6,16.56v1.07h-3.49v-4.2h3.41V14.5h-2V15h1.78v1H453.5v.55Z"/><path class="cls-2" d="M456.15,13.43h1.41v3.1h1.9v1.1h-3.31Z"/></g></g></svg>