<svg xmlns="http://www.w3.org/2000/svg" xmlns:xlink="http://www.w3.org/1999/xlink" viewBox="0 0 420 143.5"><defs><path id="a" d="M0 0h420v143.5H0z"/></defs><clipPath id="b"><use xlink:href="#a" overflow="visible"/></clipPath><path clip-path="url(#b)" fill="#FECD1D" d="M310.5 3.3c1.9-.6 4.7-.4 6.8-.1v-.3c-2.6-.1-4.9-.8-7.6-.7l-4.6-.1c-1.1-.6-1.8 0-3 0 1.6.8 3.2.4 4.9.8 1.1.3 2.4-.1 3.5.4"/><path clip-path="url(#b)" fill="#FFF" d="M325 3.4h.7M325 3.4h.7"/><path clip-path="url(#b)" fill="#FECD1D" d="M328.9 3.9c-.3-.3-.8-.1-1.2-.1V4c.4.2 1 .1 1.2-.1"/><path clip-path="url(#b)" d="M230.9 94h.5v-.2c-.2 0-.4-.1-.5.2"/><path clip-path="url(#b)" fill="#FECD1D" d="M277.8 2.4h-.4v-.2h.4v.2zm-15.3-.2c-.2 0-.5.1-.5-.3 0-.3 0-.4.3-.4s.6-.1.7.2c-.2.2-.2.6-.5.5m-2.3-.3v-.2c.3.1.7-.1 1 .1-.1.4-.8.3-1 .1m-3.1 0l-.1-.1c.2-.5.9-.1 1.2-.1-.2.4-.8.2-1.1.2m-9.9-.1h-.9v-.3c.3 0 .7-.2.9.2v.1zm-4.3 0c-1.9.4-4-.3-5.9.4-3.4-.2-7.7-.1-11.1 0l-.3-.2c.9-1.1 3 0 3.9-1.2 1-.6 1.9.7 2.7-.1 2.1-1 3.9.9 5.9.3 1.6.6 3.3.3 5.1.3.4-.3 1-.1 1.4.3-.4.4-1 0-1.7.2m-19.2.6l-1-.2c-.1-.3.1-.5.3-.6.4.1.8-.1 1.1.1 0 .4-.1.6-.4.7m-2.4-.1h-.2v-.4c.1 0 .3 0 .3.1.1.2 0 .2-.1.3m-5 .1h-.3v-.3c.1-.1.1.1.3.1v.2zm-13.8.3h-.8c0-.2-.1-.2-.2-.3.6-.9 1.8-.4 2.6-.4.2.2.6.2.8.4-.5.9-1.6.4-2.4.3m-61.6 2.5c-1.3.4-2.8-.4-3.8.3-.2.3-.4-.1-.5-.2.2-.5.9-.8 1.3-1.2 2-.1 3.7.8 5.5.6l.4.3c-.8.9-1.9-.4-2.9.2m-9.4.3c-1.2.4-2.6.3-4 .4-.2-.1-.1-.2-.1-.4 1.1-.5 2.4-.9 3.7-.6.2.2.6.3.4.6m-6 .5l-2.9.1c-.3-.1-.1-.4-.1-.6.4-.3 1-.1 1.3-.7.8-.1 1.5.1 2.2.4.2.5-.2.7-.5.8m-4.2 0c-.5.1-1.4.3-1.8-.1.4-.4 1.3-.5 1.8-.1V6zm250.2 70.7c-.7-1.5-.2-2.8 0-4.3.4-2-1.2-3.6-.5-5.3.4-4.3.3-8.8.1-13-.5-2 .5-4.1 0-5.9.1-2.6-.2-5.7-.3-8.2.7-1.7-.8-3.3.1-5-.8-4.1-.5-9.3-.3-13.8-1-1.7-.5-4-.8-6-.7-.5-.2-1.5-.4-2.3-.9-.9-.4-2.4-1.6-3-1.7.6-2.4-1.2-3.9-1-2.5-1.6-4.1-4.9-7.7-3.9-2.1 1-3.9 3-6.6 2.6-2.5-1-5.8.1-8-1.4.6-1.3 2-.3 3.1-.5v-.2c-1.9-.6-4.3-.8-6.1-.8.6.6 1.7.3 2.2 1.1.1.4-.2.5-.4.7-.4.1-.8-.1-1.1-.4-2.6.8-5.6.1-8.4.1l-.3-.2c-3.8.1-7.1-.9-10.6-.3-3.4-.8-6.9-1-10.4-1.2-.6-.5-1.3.3-1.8-.3-1.6.4-2.8-.9-4.5-.3-.6-.8-1.5 0-2.4-.3-2-1.1-4.6.1-6.6-.6-4.6.4-9.2-.2-13.8-.3-.1-.2-.5-.3-.4-.6 2.6-1.4 5.8-.2 8.8-.6l.7.4c3.8-.4 7.2.9 10.5-.3l-.4-.3c-4.8.4-9.4-.8-14.1-.3-2-1-3.7.3-5.9-.3-3.1-.6-6.9-.2-10.3-.5l-.4.3 5 .5c.5 0 1.1.3 1 .8-.3.2-.4.5-.7.6h-9.5c-.3-.2-.9-.3-.9-.8.3-.2.6-.1.9-.1.8-1 2.5.5 2.9-.8-1.1-.9-2.4.3-3.8-.5-7-.2-13.8-.1-21-.3-7.9.6-14.7.4-22.7.3-1.1.4-2.1.1-3.1 0-1.9 1.2-4.4.6-6.6.2-3.1.4-7.3.2-10.8.3-3.9.7-8.3.1-12.4.5l-.9-.2c-2 .6-4.2.3-6.2.7-6.5.1-12.7.3-19.2.8-1.6-.6-3.4.1-5 .3-.4-.1-.8-.5-1.3-.1-4.1.3-8.4.8-12.6.6-1.3.3-2.8.3-4.3.5-1.1-.2-2.3 1.3-3.3.1-2.4 0-4.8-.1-7.2.1-.8-.3-1.6-.5-2.3.3h-6.4c-.9.3-2.1.4-3 .3-.7-.1-2.1-.4-2.1.7-1 .1-2.3.5-3.1.2-6.3-.5-12.1.3-18.5 0-4.6-.5-8.5.9-13.3.1-1.6 1.1-3.6 0-5.4.5-1.3.5-2.6-.1-3.8.3-1.9.1-4.2.4-6-.3-2.4.4-4.6-.2-7.1 0-3.4.1-6.8-.8-10.1.3-1.3.3-.8 1.8-1 2.8-.5.6.4 1.3-.3 1.8-.1 1.8-.3 3.9 0 5.8-.1 2-.3 4.5-.4 6.5 0 .6-.9 1.6.3 1.8 0 .3-.1.7-.1.9 1.4 2.3-1 4-.1 6.3-.4 3.2.3 6.9-.6 10.1 1.7 2.3.3 5.7.7 8.2-.6 1.3.1 2.5.5 3.6.8 2.3-1 4.1-.4 6.3.7 2.2.6 4.7.6 7.2 1.3 1.8-.1 4.3.7 6.4.7 3.8.5 8 1.1 11.9.4 1.4 0 3.2.6 4.5-.3 1.3.2 2.7 1.4 3.4 1.4.4 2.6.7 3.9.4.8.9 1.9-.2 2.6.5 2.9-.5 5.6.9 8.4.2 1.3.5 2.8.6 4.2.3 1.3 1 3.2.3 4.8.6.9 0 1.7-.5 2.5.1 2.3-.2 4.6-.1 7-.1 2.3-.3 4.8.3 7.2.1.6-.3 1.3-.2 1.9.2 1.3-.6 2.5-.3 3.9 0 5.1.1 9.9.1 14.9 0 1.1.3 3-.4 4.1.6 2.1-.8 5.2-.6 7.4-.1 1.6-1.3 3 1.1 4.6-.3 2.5.6 5.7.6 8.3 0 1.5 1.2 2.9-.8 4.4 0 1.2-.7 2.1 1 3.1.2 4.4.8 9.3-.2 13.9.3l.3-.2c1.7.1 4.1.4 5.8-.3 1.7 0 3.6-.3 5.1-.1h15c1.1-.4 2.5-.1 3.7-.3.9.5-.3 1.3.1 2-2.1 5.4-3 11.2-4.9 16.6.2 1.7-1.6 3.1-.6 4.7.6.4 1-.3 1.5-.4 8.3-8 17.1-15.3 25.7-22.9 1-1.7 3.5-.2 4.7-1.3H223l1.6-.3c1.6.6 3-.6 4.7-.3.4-.4.6-1.2 1.2-1.4.9 1.4 3.4-.5 3.7 1.8.3.1.6-.1.8-.3 1.9 0 4.7-.4 6.7-.1 3.1-.7 6.8.3 9.6-.9 1.9.7 3.4.9 5.3.3 1 .7 2.3-.3 3.4-.3.9-.4 1.6.2 2.3-.5.3 0 .6-.1.7.3.8 0 1.6.9 2.3.1 2.4.4 4.6.2 6.9.3 1.4-1.3 2.3.6 4-.3 2.5-.7 5.5-.6 8.4-.6 1.1-.8 3.1-.5 4.4-.3.5.3 1 0 1.4-.2.9.8 1.7.1 2.6.1 1.3-.5 2.1 1 3.3 0 1.2 1.4 2-1.1 3.1-.1 4 .1 7.8-.2 11.6-.3 1.9.3 3.8-.6 5.8-.6 1.4.4 3 .1 4.5.2.5.4.9.4 1.4 0 3.5.3 6.5-.6 9.9-.1 2.4.2 4.8.2 6.9 0 .8.3 2.2-.2 3 .5 3.4.4 6.1-.8 9.4-.4 1.3 1 2.9-.4 4.5.2 4.5-.1 8.7-.2 13-.3 1.5-.3 1.3-1.9 1.3-3 .4-.6-.4-1.3.2-1.8-.3-2.4.5-4.6-.2-7 .1-.8 1-.3 1.4-.6-.2-.8-.8-1.3-.6-2.1M31.8 39.5c1.3 1.3 1.8 3.5 1.2 5.2-.5.5-1.1 1.5-2 1.3-1.2-.4-2.3.4-3.4-.5-1-.6-.4-1.8-.3-2.6-.2-.7-.1-1.6.2-2.3.8-.7 1.5-1.8 2.7-1.5.5.4 1.1.5 1.6.4M8.6 59.5c-.1 1.3-.3 3.1-1.7 3.7-.4.6-.6 1.3-1.2 1.7-.9.5-1.9-.1-3 0-1.3-.5-1.6-1.9-2.6-2.8-.4-1 .3-1.8.4-2.7 1-1 2.4-1.4 3.7-1.5.5-.3 1.3-.2 1.9-.3 1.4-.3 1.8 1 2.5 1.9M33.1 64.7c1.7.4 2 2.2 2.3 3.6.2.8-.1 1.4-.4 2.1-.7.7-1.8.3-2.7.5-1.2-.2-2.9.2-3.4-1.4-.3-.3-.8-.5-1-1-.4-1.2.4-2.3 1-3.3.5-.9 1.8-.5 2.6-.6.5.3 1 0 1.6.1M22.1 83.8c.6-.1 1.3.1 1.8.5 1.5 1.2.7 3.6 1.4 5.2.3 1.5 1.5 3.1.5 4.8-.8.6-1.8.7-2.8.6-1.2-.2-2.5-.2-3.4-1.2-.8-.3-2.1-.2-2.3-1.4-.1-.6 0-1.2-.4-1.7-.5-1.8.5-3.3.6-5 .2-1.2 1.3-2 2.3-2.6.8.3 1.7.2 2.3.8M70.8 104.8c.5.6.5 1.3.9 1.9.1 1.5.9 3 .2 4.4-1.1 1.4-2.9.8-4.4.5-1.1-.8-1.7-1.9-2.5-2.9 0-.4-.3-.7-.1-1.2.9-.8 0-2.4 1.5-2.9.8-.3 1.7-.4 2.5-.6.7.2 1.2.6 1.9.8M35.3 107c.4.6.9 1.1.8 1.8.5 1.2-.8 2.1-1.5 3-.8.3-1.5.7-2.3.7-.9-.3-1.4-1.1-2.3-1.5-.4-.3-.5-.8-.4-1.2.6-1.1.5-3.1 2.3-3 .4-.2.9-.1 1.3-.3.7.1 1.5 0 2.1.5M10.3 109c.2.8.2 1.7 0 2.6-.4 1.1-1.6 1.9-2.6 2-1.2-.6-2.7 1-3.2-.8-.4-.3-.8 0-1.2-.2-.4-.2-.3-.7-.6-1-.3-.9.4-1.5.3-2.3 1.5-1.4 3.7-1.8 5.8-1.6.6.1 1.1.7 1.5 1.3M28.9 130.6c.6 1.4.5 3.1.9 4.7.2 1.2-.8 2-1.5 2.6-.7.1-1.4-.5-2.1-.1-1-.1-1.5-1.4-2.6-1.3-.4-.6-.2-1.4-.6-2-.1-.9 0-1.8 0-2.6 1.1-1.1 2.4-1.8 3.7-2.6.9 0 1.8.4 2.2 1.3M67.4 137.1c.8.4.5 1.4 1.1 1.9.1 1 .1 2-.1 2.9-.6 1.5-2.2 1.7-3.7 1.7-.5.1-.8-.5-1.2-.7-.5-.1-1.1-.1-1.5-.6-.9-1-.8-2.9-.3-4.1-.2-.4 0-.8.4-1 1-.3 1.7-1.6 2.9-1.4 1.1 0 1.4 1.3 2.4 1.3"/><path clip-path="url(#b)" fill="#E6472A" d="M177.9 26.9c-.6-1.6-2.2-2.6-3.3-4-1.8-2.2-4.3-3.3-6.8-3.9-1.3-.3-2.9-.3-4.1.2-1.9.4-3.2 2.3-4.6 3.7-2.5 2.7-3.1 6.1-3.7 9.6-.1.5.1 1.2-.2 1.7.1 1.5-.2 2.9-.2 4.3-.2 1.7-.1 3.8.1 5.6-.2 1.6.6 2.8.3 4.4.4 1.2-.3 2.2-1.2 3-.3 1.4-2.1 2.3-1.8 4 .1 1.1 1.2 1.2 1.8 1.7.4.2.9.1 1.3.3.7.4.6 1.2.9 1.8.1 1.7.4 3.2.6 4.8.4 4.1 2.2 7.7 3.3 11.5.1.1.2.4.4.3.9 1.1 2.3.4 3.4.2.6-.5 1.4-.4 2-1 .1-.8 1.3-1 .9-1.9-.7-1.6-1.8-3-2.2-4.8-1.1-2.5-1.4-5.3-1.9-8-.3-1.2-.6-2.4-.7-3.7.3-.4.7-.6 1.1-.6 1.9.2 4.2-.2 6 .5.9-.1 1.9.3 2.8.1 1.1 0 2-.7 2.9-1 1-.3.5-1.4 1.3-1.9 0-.4.1-.9-.1-1.3-.5-1.2-1.7-2.2-3-2.3-3.6-.5-7.4-1.3-11-.9-1.6-.3-.7-2.2-1.2-3.3.1-2.5 0-5.3.1-7.8 0-4 .4-7.9 1.5-11.5.3-.8.7-2.1 1.8-2 1.4.5 2.7 1.3 3.7 2.4 1.5 1.1 3 2.6 3.8 4.3.9 1.1.3 2.9 1.8 3.8 1.1.1 2.2.7 3.1-.1 1.7.2 2.7-1.5 3.4-2.8.1-.9-.1-1.7-.7-2.4 0-1.2-.7-2.2-1.6-3M83.3 68c-3.9-5.5-4-12.5-5-19.2-.2-.4 0-1-.2-1.3v-3.8l-.1-.2c-.1-3.3.1-6.5.3-9.6.4-1.8.2-4.1.6-6.1-.2-.8-.8-1.5-1.6-1.9-1.2-.2-2.4-1.1-3.6-.4-.5.6-1.5.7-1.8 1.5-.3 2.3-.2 4.8-.5 7.1-.2.3 0 .7-.2 1-.1 4.3.2 8.4.2 12.7.1 1.6.6 3.2.6 4.9.7 3.5.8 7.2 1.9 10.5.7 2.2 1.5 4.2 2.5 6.2.8 1.2 1.5 2.6 2.8 3.3 1.4-.1 2.8 1 4.1.2.7-.4 1.8-.7 1.8-1.7-.2-1.2-.6-2.6-1.8-3.2M342.9 33.8c-.6-1.7-2.6-2.4-4.3-2.5-2.1.3-4 .9-5.7 2.1-.4.1-.6.8-1.1.7-1.1.9-2.2 2.1-3.3 2.9-.1.6-.7.5-.9 1.1-1.8 2.1-3.8 4.1-4.9 6.5-.7 1.4-1.1 3.1-1.1 4.7-.3 1.3 0 2.7.2 4 0 1.3.7 2.3 1 3.4.2.9.9 1.6 1.3 2.4 1.4 1.6 2.4 3.4 4 4.9.6.9 1.4 1.8 1.8 2.8-.8 1.3-2 2.3-2.7 3.7-.2.5.1 1 .3 1.4.9.9 1.7 2.1 3 2.3.5-.2 1.2.1 1.7-.2.8-.8 1.7-1.4 2.5-2.3.5-.7 1-1.3 1-2.3.7-1.7-.2-3.3-1-4.7-1.5-1.6-2.6-3.4-4-5-1-1.4-2.3-2.7-2.6-4.4-.9-1.4-.9-3.3-1-5 .3-.3.2-.6.2-1 .4-.2.1-.6.3-.8.1-2 1.7-3.4 2.6-5.1 1.2-.8 1.9-2 3-2.8.6-.2 1.1-1.3 1.8-.8-.4.9-.9 2-1 3.1.3 1.2 1.6 2.6 2.9 2.7 2 .4 2.7-1.7 3.7-2.8.1-.6.6-1.1.9-1.6 1.1-2 2.2-4.8 1.4-7.4M225.8 44.3c-.6.7-.5 1.7-1.3 2.3-.6 1.3-2 2.3-2.7 3.5-.4.5-.8.9-1 1.5-1.1.8-2.1 1.8-3 2.6-.5.6-1.2 1-2 .8-.5-.9-.1-2.1.1-3 .2-1 .8-1.7.9-2.7.5-.5.8-1.1.9-1.8 1.3-1.5 2-3.1 3.7-4.4.3-.5.9-.5 1.3-1 1.2.3 1.9 1.5 3.2 1.3.4.3-.1.6-.1.9m8.4 12.5c-1.3.5-2.3 1.9-3.6 2.3-.4.2-.7-.1-.9-.2-.8-1.5.8-2.6.4-4.2.1-1 .7-1.9.7-2.9.5-.8.4-1.8.6-2.7.6-1 .3-2.2.1-3.3-.4-1.9-2.3-2.5-4-2.8-.4-.7-.2-1.6-.1-2.5-.3-1.1-.4-2.4-1.4-3.3-.7-1.2-2-1.3-3-1.6-1 0-1.8 0-2.6.4-1.4.5-2.5 1.5-3.5 2.7-1.1.9-2.1 2.2-3.1 3.2-.4 1.1-1.4 2-1.9 3.1-.6 1.8-1.9 3.3-1.9 5.4-.5 2.6-.6 5.5.5 7.8-.5 1.6-2.2 2.6-3.3 3.9-1 .8-1.9 1.6-2.8 2.3-.6.3-1 .4-1.7.7-.2.1-.5.2-.8.1-.3 0-.5 0-.7-.2-.6-.7-.6-1.6-.4-2.4.2-.9-.1-1.8.5-2.5-.3-.9.4-1.6.4-2.4.2-.9.1-1.9.5-2.8-.3-1.1.5-1.8.2-2.9.3-.9.4-2.1.4-3.1-.5-.9.6-1.5.3-2.3-.1-.5.1-1.1-.2-1.5.1-2.2-.5-4.1-.9-6.1-.4-.7-.4-1.5-.9-2.2 0-.4-.4-.7-.5-1.1-.8-1.1-1.9-2.4-3.2-2.7l-.6-.1c-.6-.3-1.4-.6-2.1-.2-2.5.1-4.4 2-5.9 4-1.1.8-1.6 2-2.6 2.9-.9 1.5-2.1 2.7-2.8 4.3-.9 1.2-1.4 2.5-2.2 3.8 0 .4-.2.9-.3 1.3-.3 1.8 1.5 2.9 2.8 3.8 1.9.6 2.9-1 4.3-1.9.5-.4.3-1.2.7-1.7 1.4-.3.8-2.1 1.5-3 0-.3 0-.6.2-.8.3-.9.8-1.6 1.4-2.3.8-1.6 1.7-3.2 3.3-4.5.3-.2.5.1.7.3 1.3 2.8.9 6.5 1 9.6-.1.8-.5 1.7-.1 2.5-.3 1.4-.4 2.8-.8 4.2.1 1.4-.4 2.5-.5 3.9 0 .9-.5 1.8-.3 2.6-.2.7-.1 1.5-.1 2.3.4.8.4 1.8.9 2.5.5 1.6 1.9 2.9 3.3 3.8 2.7 1.1 6 .5 8.2-1.3 1.7-1.8 3.7-3.7 5-5.8.5-.5.7-1.4 1.5-1.6 1.3.3 3.2.4 4.4-.3 1.2.1 1.8-1.3 2.8-1.7.6-.6 1.4-1.2 2.2-1.4.6.4.4 1.2.6 1.8.7 1.8 2.1 3.8 4 4.3 1.1.5 2.8.6 3.8-.1 1.1-.1 1.9-1.1 2.8-1.7.9-.4 1.7-1.3 1.8-2.3.6-.6.2-1.3.1-2-.6-.7-1.4-1.2-2.2-1.4M262.4 56.9c-1.1.1-1.8-.7-2.8-.7-.8-.5-1.2-1.3-1.3-2.3-.4-.5-.2-1.2-.7-1.7-.4-1.5-1.1-2.9-1.3-4.5-.8-1.4-1-3-2.4-4.2-1-.8-2.5-1.2-3.8-.7-1.2 1-2.2 2.2-3.1 3.2-1.3 1-1.6 2.3-2.9 3.3-.2 0-.4.2-.6 0-.3-1.2.3-2.2.3-3.3.3-.8-.4-1.7.2-2.4-.2-1.4.4-2.4.1-3.8.2-1.4-.3-2.8-.7-4.1-.8-1.5-2.9-2.2-4.5-1.3-1 .4-1 1.4-1.1 2.3.5.8-.3 1.4-.3 2.2.2 1 .2 2.3.1 3.3 0 2.7-.3 5.3-.1 7.9.1.6.1 1.3-.1 1.8.3 1.5.6 3 1.4 4.3.2 1.3 1.5 1.9 2.5 2.7.9.2 1.9.2 2.8-.1.1-.3.4-.2.7-.3 1.8-1.3 3.4-3.2 4.3-5.2.6-.7 1-1.5 1.5-2.3.8.1 1.1 1 1.5 1.6.5 1.3.9 2.6 1.3 3.9.7 1.2 1.3 2.5 2.2 3.6 1.4 1 2.8 2.7 4.8 2 1.1-.3 2.2-.8 2.6-2 .1-.9.7-2.5-.6-3.2M314.4 64.5c-2-2-1.6-5.2-1.6-7.9-.3-1.1-.1-2.4-.9-3.3-1.1-.6-2-1.7-3.4-1.1-1.3 0-1.3 1.5-2.1 2.2-1.8 2.3-3.9 4.2-5.7 6.3-1.3 1.2-2.4 2.7-4.1 3-.4-.1-.5-.3-.7-.6-.2-1-.1-2 .1-2.9.5-.7.5-1.7 1.1-2.3.3-.6.7-1.2.9-1.8 2-2.6 3.8-5.2 6.5-7.2 1.1-.2 1.7 1 2.7 1.2.9.1 1.8 0 2.5-.5.6-.2 1.3-.3 1.7-.8.6-.8.8-1.9.5-2.9-.2-1.3-1.6-2-2.7-2.5-.5-.5-1.3-.5-2-.8-1 0-2.2-.5-3.2 0-3.4.4-5.9 3.6-8.1 6.1-1.2 1.6-2.4 3.1-3.5 4.8-.5 1.5-1.6 2.8-1.9 4.4-.4.7-.4 1.4-.7 2.2-.2.4.2 1.1-.3 1.4-1 .3-1.8 1.1-3 1.2-1.8.8-3.8 1.1-5.7 1.5-2.1.2-4.3.5-6.3 0-.6.1-1-.7-1.5-.8-1.5-.7-2.8-2.2-2.7-3.9-.4-1.7 0-3.5.4-5.2 0-.8.4-1.4.6-2.2 1.5-3 3.1-6 5.6-8.6.9-.2 1-1.5 2.1-1.3 1 1.2 2.2 2.3 3.7 2.5.5-.3 1.2-.3 1.4-.9.4-1.6-.6-2.6-.9-3.9-1-1.6-2.6-3.1-4.5-3.4-5.2-.6-8.4 4.8-10.9 8.4-.3.7-.6 1.4-1.1 2.1-.6 1.8-1.7 3.4-1.8 5.4-.6 1.7-.4 3.7-.6 5.5.5 2.5.8 5.1 2.8 7 .4 1.5 2.1 1.7 2.9 3 1.4 1 3.2 1.1 4.8 1.8 1.5-.1 3.1.4 4.6 0 1.4 0 2.5-.7 3.9-.8 1.6-.6 3.2-1.3 4.7-2.2.8-.3 1.3-1.5 2.2-1.4.8 1.2 1.5 2.3 2.6 3.3.7 1 2 1 3 1.4.5.2 1.1-.1 1.6-.2 3.5-.1 5.4-3.4 7.9-5.6.5-.5.9-1.3 1.8-1.1.4.6.7 1.3 1 2 1.2 1 1.4 2.6 2.9 3.5.9.7 2.1.9 3.2 1.3 2.6.4 4.4-1.3 6.1-3.1.1-.8.5-1.9-.1-2.7-1.6-2.7-3.5 1.3-5.8.4M98.9 46.4c.3-1 .9-2 1.7-2.7.6-.1.9-.9 1.6-.7-.4 2-1.8 4-3.7 5.3-.1-.1-.2-1.4.4-1.9m7.1 18.1c-.3-.2-.5.1-.8.1-.9-.1-1.3 1-2.2 1-1.7.1-3.4-.5-4.4-2.1-.1-.4-.3-.7-.6-1-.7-1.8-1.7-3.5-1.4-5.7 1.2-1.8 3.6-2.1 4.8-4.1.7-.2.9-.9 1.5-1.2 2.3-3 4.7-6.2 3.8-10.2-.6-.6-.6-1.6-1.4-2-1-.5-1.7-1.5-3-1.3h-.9c-.8-.3-1.6.1-2.4.1-3.3 1.3-5.3 4.6-6.5 7.7-.9 1.7-1 3.7-1.5 5.5.1.8-.8 1-1 1.6-.1.5-.1 1.2.1 1.7.3.4.1.8-.1 1.2-1.3 1.3-3.1 1.5-4.3 2.9-.1.3-.2.6-.5.8 0 .6-.2 1.3.1 1.8.5.7 1.5 1 2.4.7.8.1 1.3-.5 1.9-.7.9.2 1.3-.8 2-.9.2.1.1.3.1.5.6.9 1.2 1.8 1.6 2.9.3.7.9.9 1.2 1.5 1 1.6 2.5 2.4 3.9 3.4 1 .5 2.3.5 3.3.8 1.3 0 2.6-.2 3.7-.7.4-.5 1.4-.8 1.6-1.5.5-1.3-.3-2.1-1-2.8M128.1 42.5c-.4-1.1-1.5-1.9-2.6-2.2-1.9-.2-3.7.2-5.2.9-.7.4-1.5.8-2.2 1.3-1.1 1.4-3.1 1.8-3.9 3.4-.9.5-.9 1.5-1.7 2.1-.4.7-1 1.3-1.1 2-.9 1.5-1.1 3.5-.8 5.4 0 .7.4 1.2.2 1.8.4.3.2.8.6 1.1-.1.6.4.9.4 1.4.5.6.6 1.4 1.2 2 .3.8 1 1.4 1.6 1.9.3.9 1.1 1.1 1.5 1.8.1.5.6.7.9 1 .2.3.7.2.6.6.4.6 1.2.7 1.7 1.1.2.8 1.6.9 1.2 1.9-1.2 1-1.9-.9-3-.2-.3.1-.7.1-.9-.1-.2-.1-.5-.2-.6.1-1.2.1-1.6 1.3-2.5 1.9-.1.3-.5.6 0 .9-.4 1.1.9 1.4 1 2.3.3.8 1.2.6 1.6 1.1.9 0 1.9.1 2.6-.3 2.5.2 5 0 6.7-1.8.6-.7.8-1.6 1.3-2.3-.1-.4.1-.9-.3-1.2.3-.8-.4-1.5-.7-2.2-.7-2-2.8-3.5-4.4-4.9-1.2-.4-2.1-1.7-2.6-2.8-1-.5-.9-1.9-1.7-2.4-.2-1.5-.5-2.5-.4-3.8.1-.2-.1-.6.3-.8-.1-.9.4-1.5.8-2.2.3-.3.1-.9.7-.9.5-1.1 1.6-2 2.5-2.9.5.1.7-.4 1-.7.8 0 1.2-1.5 2-.8-.1 1.3 1.4 1.4 2.2 2 .7.3 1.2-.2 1.6-.5.7-.8-.1-1.9.8-2.6 0-.7.3-1.8-.4-2.4M214.5 119.7l-.6-10.7 2.2-.1.4 8.6 5.4-.3.1 2.1zM222.9 112.8l-1.4.1-.1-4.3 2.5-.1zM232.7 115.4l-4.8.3c.1 1.1 1 1.5 1.7 1.4.6 0 1.1-.3 1.3-.6l1.6 1.2c-.6.9-1.7 1.4-2.8 1.4-2.3.1-3.9-1.4-4-4-.1-2.5 1.3-4.3 3.4-4.4 2.1-.1 3.5 1.7 3.6 4v.7m-3.1-5.6l-1.8.1 1.2-2.5 2.7-.1-2.1 2.5zm-.5 2.8c-.8 0-1.2.7-1.2 1.5l2.8-.1c-.2-.8-.6-1.5-1.6-1.4M239.2 118.4v-.5c-.4.4-.9.7-1.7.8-1.7.1-3.2-1.1-3.3-4.1-.1-2.4.9-4.1 2.9-4.2.7 0 1.3.2 1.7.5l-.1-2.5 2.1-1.2.6 11.1-2.2.1zm-.3-5.5c-.3-.4-.8-.6-1.5-.6-.8 0-1.2.8-1.1 2.1.1 1.7.7 2.3 1.5 2.3.7 0 1-.3 1.3-.7l-.2-3.1zM248.4 117.9v-.5c-.3.4-1 .8-1.8.8-2 .1-3-1.3-3.2-3.5l-.2-4.5 2.1-.1.2 4.3c.1 1.4.6 1.8 1.5 1.8s1.4-.5 1.3-1.9l-.2-4.4 2.1-.1.4 8-2.2.1zM256.1 117.7c-2.1.1-3.9-1.5-4-4-.1-2.5 1.4-4.3 3.6-4.4 1.5-.1 2.5.6 3.3 1.6l-1.3 1.5c-.5-.6-1-1.1-1.9-1.1-1 .1-1.6.9-1.6 2.2.1 1.3.8 2.1 1.8 2.1.8 0 1.3-.4 1.8-1.1l1.4 1.2c-.6 1.1-1.5 1.9-3.1 2M265.6 117v-.5c-.4.4-1 .8-1.8.8-1.5.1-3-.8-3.1-2.7-.1-1.8 1.3-2.7 3.1-2.8.7 0 1.2.1 1.6.2v-.4c0-.6-.4-1-1.2-1-1 0-1.5.2-2.2.7l-.9-1.4c.9-.6 1.7-.9 3-1 1.9-.1 3.3.8 3.4 2.6l.3 5.4-2.2.1zm-.2-3.3c-.4-.2-.7-.3-1.5-.3s-1.2.4-1.2 1.1c0 .6.4 1.1 1.3 1 .7 0 1.2-.4 1.4-.8v-1zM274.4 116.2c-.3.3-1 .5-1.6.6-1.3.1-2.2-.9-2.3-2.3l-.2-3.8-1.3.1-.1-2 1.3-.1-.1-2.1 2.1-1.2.2 3.1 1.9-.1.1 2-1.9.1.2 3.2c0 .8.3.9.8.9.4 0 .7-.2 1.2-.7l-.3 2.3zM277.6 107.7c-.7 0-1.2-.5-1.3-1.1 0-.7.5-1.2 1.1-1.3.7 0 1.2.5 1.3 1.1 0 .7-.5 1.3-1.1 1.3m-.6 8.7l-.4-8 2.1-.1.4 8-2.1.1zM284.6 116.2c-2.1.1-3.7-1.5-3.8-4-.1-2.5 1.3-4.3 3.4-4.4 2.1-.1 3.7 1.5 3.9 4s-1.4 4.3-3.5 4.4m-.3-6.3c-1 .1-1.4 1-1.4 2.2.1 1.2.6 2.1 1.6 2.1 1-.1 1.4-1.1 1.4-2.2-.1-1.3-.6-2.2-1.6-2.1M295 115.5l-.2-4.3c-.1-1.4-.6-1.8-1.5-1.8s-1.4.5-1.3 1.9l.2 4.4-2.1.1-.4-8 2.1-.1v.5c.3-.4 1-.8 1.8-.8 2-.1 3 1.3 3.2 3.5l.2 4.5-2 .1zM310.5 111.3l-4.8.3c.1 1.1 1 1.5 1.7 1.4.6 0 1.1-.3 1.3-.6l1.6 1.2c-.6.9-1.7 1.4-2.8 1.4-2.3.1-3.9-1.4-4-4-.1-2.5 1.3-4.3 3.4-4.4 2.1-.1 3.5 1.7 3.6 4 .1.4.1.6 0 .7m-3.6-2.8c-.8 0-1.2.7-1.2 1.5l2.8-.1c-.2-.8-.6-1.5-1.6-1.4M317.5 114.3l-.2-4.3c-.1-1.4-.6-1.8-1.5-1.8s-1.4.5-1.3 1.9l.2 4.4-2.1.1-.4-8 2.1-.1v.5c.3-.4 1-.8 1.8-.8 2-.1 3 1.3 3.2 3.5l.2 4.5-2 .1zM336.2 113.3l-.2-4.3c-.1-1.4-.5-1.8-1.4-1.8-.9 0-1.3.5-1.2 1.9l.2 4.4-2.1.1-.2-4.3c-.1-1.4-.5-1.8-1.4-1.8-.9 0-1.3.5-1.2 1.9l.2 4.4-2.1.1-.4-8 2.1-.1v.5c.3-.4.9-.8 1.7-.8 1-.1 1.6.2 2.3.9.5-.6 1.2-1.1 2.5-1.2 2-.1 2.9 1.3 3 3.5l.2 4.5-2 .1zM343.8 113.1c-2.1.1-3.7-1.5-3.8-4-.1-2.5 1.3-4.3 3.4-4.4 2.1-.1 3.7 1.5 3.9 4 0 2.5-1.4 4.3-3.5 4.4m-.4-6.3c-1 .1-1.4 1-1.4 2.2.1 1.2.6 2.1 1.6 2.1 1-.1 1.4-1.1 1.4-2.2 0-1.3-.6-2.2-1.6-2.1M354 112.4v-.5c-.3.4-1 .8-1.8.8-2 .1-3-1.3-3.2-3.5l-.2-4.5 2.1-.1.2 4.3c.1 1.4.6 1.8 1.5 1.8s1.4-.5 1.3-1.9l-.2-4.4 2.1-.1.4 8-2.2.1zM362.8 111.9l-2.2.1-3.3-7.9 2.3-.1 1.4 3.7c.2.6.5 1.4.6 1.7.1-.4.2-1.1.4-1.8l1-3.8 2.3-.1-2.5 8.2zM373.4 108l-4.8.3c.1 1.1 1 1.5 1.7 1.4.6 0 1.1-.3 1.3-.6l1.6 1.2c-.6.9-1.7 1.4-2.8 1.4-2.3.1-3.9-1.4-4-4-.1-2.5 1.3-4.3 3.4-4.4 2.1-.1 3.5 1.7 3.6 4v.7m-3.6-2.8c-.8 0-1.2.7-1.2 1.5l2.8-.1c-.2-.8-.7-1.5-1.6-1.4M384.9 110.8l-.2-4.3c-.1-1.4-.5-1.8-1.4-1.8-.9 0-1.3.5-1.2 1.9l.2 4.4-2.1.1-.2-4.3c-.1-1.4-.5-1.8-1.4-1.8-.9 0-1.3.5-1.2 1.9l.2 4.4-2.1.1-.4-8 2.1-.1v.5c.3-.4.9-.8 1.7-.8 1-.1 1.6.2 2.3.9.5-.6 1.2-1.1 2.5-1.2 2-.1 2.9 1.3 3.1 3.5l.2 4.5-2.1.1zM395.5 106.9l-4.8.3c.1 1.1 1 1.5 1.7 1.4.6 0 1.1-.3 1.3-.6l1.6 1.2c-.6.9-1.7 1.4-2.8 1.4-2.3.1-3.9-1.4-4-4-.1-2.5 1.3-4.3 3.4-4.4 2.1-.1 3.5 1.7 3.6 4v.7m-3.6-2.9c-.8 0-1.2.7-1.2 1.5l2.8-.1c-.2-.7-.7-1.4-1.6-1.4M402.4 109.9l-.2-4.3c-.1-1.4-.6-1.8-1.5-1.8s-1.4.5-1.3 1.9l.2 4.4-2.1.1-.4-8 2.1-.1v.5c.3-.4 1-.8 1.8-.8 2-.1 3 1.3 3.2 3.5l.2 4.5-2 .1zM411.1 109.1c-.3.3-1 .5-1.6.6-1.3.1-2.2-.9-2.3-2.3l-.2-3.8-1.3.1-.1-2 1.3-.1-.1-2.1 2.1-1.2.2 3.1 1.9-.1.1 2-1.9.1.2 3.2c0 .8.3.9.8.9.4 0 .7-.2 1.2-.7l-.3 2.3zM419.3 105.7l-1.4.1-.5-2.9-.2-4.4 2.1-.1.2 4.4-.2 2.9zm-.5 3.5c-.7 0-1.3-.5-1.4-1.2 0-.7.5-1.3 1.2-1.4.7 0 1.3.5 1.4 1.2 0 .8-.5 1.4-1.2 1.4"/></svg>